<svg xmlns="http://www.w3.org/2000/svg" viewBox="-219 7500.182 1213 309.318"><defs><style>.a{fill:#333;font-size:20px;font-family:FuturaPT-Book, Futura PT;}.b{fill:#fe1636;}</style></defs><g transform="translate(-573 4923)"><text class="a" transform="translate(608 2880.5)"><tspan x="0" y="0">Javascript</tspan></text><text class="a" transform="translate(354 2880.5)"><tspan x="0" y="0">HTML5</tspan></text><text class="a" transform="translate(490 2880.5)"><tspan x="0" y="0">CSS3</tspan></text><text class="a" transform="translate(766 2880.5)"><tspan x="0" y="0">Node.js</tspan></text><text class="a" transform="translate(907 2880.5)"><tspan x="0" y="0">React</tspan></text><text class="a" transform="translate(1028 2880.5)"><tspan x="0" y="0">Sass</tspan></text><text class="a" transform="translate(1139 2880.5)"><tspan x="0" y="0">Bootstrap</tspan></text><text class="a" transform="translate(1299 2880.5)"><tspan x="0" y="0" xml:space="preserve">Usability  </tspan></text><text class="a" transform="translate(1446 2880.5)"><tspan x="0" y="0" xml:space="preserve">UX/UI Design  </tspan></text><path class="b" d="M15,0h0A15,15,0,0,1,30,15V263.752a0,0,0,0,1,0,0H0a0,0,0,0,1,0,0V15A15,15,0,0,1,15,0Z" transform="translate(371 2581.249)"/><path class="b" d="M15,0h0A15,15,0,0,1,30,15V263.752a0,0,0,0,1,0,0H0a0,0,0,0,1,0,0V15A15,15,0,0,1,15,0Z" transform="translate(499 2581.249)"/><path class="b" d="M15,0h0A15,15,0,0,1,30,15V256.78a0,0,0,0,1,0,0H0a0,0,0,0,1,0,0V15A15,15,0,0,1,15,0Z" transform="translate(635 2588.22)"/><path class="b" d="M15,0h0A15,15,0,0,1,30,15V221.342a0,0,0,0,1,0,0H0a0,0,0,0,1,0,0V15A15,15,0,0,1,15,0Z" transform="translate(786 2623.658)"/><path class="b" d="M15,0h0A15,15,0,0,1,30,15V134.2a0,0,0,0,1,0,0H0a0,0,0,0,1,0,0V15A15,15,0,0,1,15,0Z" transform="translate(914 2710.8)"/><path class="b" d="M15,0h0A15,15,0,0,1,30,15V173.123a0,0,0,0,1,0,0H0a0,0,0,0,1,0,0V15A15,15,0,0,1,15,0Z" transform="translate(1038 2671.877)"/><path class="b" d="M15,0h0A15,15,0,0,1,30,15V217.276a0,0,0,0,1,0,0H0a0,0,0,0,1,0,0V15A15,15,0,0,1,15,0Z" transform="translate(1170 2627.725)"/><path class="b" d="M15,0h0A15,15,0,0,1,30,15V267.818a0,0,0,0,1,0,0H0a0,0,0,0,1,0,0V15A15,15,0,0,1,15,0Z" transform="translate(1321 2577.182)"/><path class="b" d="M15,0h0A15,15,0,0,1,30,15V250.39a0,0,0,0,1,0,0H0a0,0,0,0,1,0,0V15A15,15,0,0,1,15,0Z" transform="translate(1490 2594.61)"/></g></svg>