<svg xmlns="http://www.w3.org/2000/svg" xmlns:xlink="http://www.w3.org/1999/xlink" viewBox="0 0 1366 873"><defs><style>.a,.ab,.p{fill:rgba(255,255,255,0.35);}.b{clip-path:url(#ab);}.c{fill:#f0f1f0;}.d{font-size:10px;}.aa,.ab,.ag,.al,.d,.n,.o,.p,.w{font-family:Roboto-Regular, Roboto;}.e,.l{fill:#fff;}.f,.h{fill:#009789;}.g,.k,.v{fill:none;}.ai,.h,.m,.x{fill-rule:evenodd;}.i{fill:url(#a);}.j{fill:url(#d);}.k,.l{stroke:rgba(29,29,29,0);}.m{fill:#02a99a;}.aa,.ag,.al,.n,.o{fill:#444;}.n{font-size:23px;}.aa,.al,.n{opacity:0.9;}.al,.o{font-size:13px;}.p{font-size:20px;}.q{fill:rgba(255,255,255,0.3);}.r{clip-path:url(#e);}.s{clip-path:url(#f);}.t{clip-path:url(#h);}.u{clip-path:url(#i);}.v{stroke:rgba(255,255,255,0.35);stroke-width:5px;}.w{font-size:6px;}.af,.x{fill:#e785ab;}.y{fill:url(#j);}.z{fill:url(#m);}.aa{font-size:14px;}.ab{font-size:12px;}.ac{clip-path:url(#n);}.ad{clip-path:url(#o);}.ae{clip-path:url(#p);}.ag{font-size:8px;}.ah{clip-path:url(#q);}.ai,.aj{fill:#8f95dc;}.ak{fill:url(#u);}.am{clip-path:url(#v);}.an{clip-path:url(#w);}.ao{clip-path:url(#y);}.ap{clip-path:url(#z);}.aq{stroke:none;}.ar{filter:url(#s);}.as{filter:url(#k);}.at{filter:url(#b);}</style><linearGradient id="a" x1="1.015" x2="0.015" y2="0.939" gradientUnits="objectBoundingBox"><stop offset="0" stop-color="#ace3e2"/><stop offset="1" stop-color="#5bb9b1"/></linearGradient><filter id="b" x="957.668" y="49.333" width="29.521" height="514.167" filterUnits="userSpaceOnUse"><feOffset dy="3" input="SourceAlpha"/><feGaussianBlur stdDeviation="3" result="c"/><feFlood flood-opacity="0.161"/><feComposite operator="in" in2="c"/><feComposite in="SourceGraphic"/></filter><linearGradient id="d" x1="1.008" y1="0.013" x2="-0.435" y2="1.451" xlink:href="#a"/><clipPath id="e"><rect class="a" width="40.567" height="40.567"/></clipPath><clipPath id="f"><rect class="a" width="20.592" height="20.592"/></clipPath><clipPath id="h"><rect class="a" width="11.882" height="11.882"/></clipPath><clipPath id="i"><rect class="a" width="30.605" height="30.605"/></clipPath><linearGradient id="j" x1="0.5" x2="0.5" y2="1" gradientUnits="objectBoundingBox"><stop offset="0" stop-color="#e26a98"/><stop offset="1" stop-color="#eca2bf"/></linearGradient><filter id="k" x="1222.049" y="320" width="25.35" height="334.5" filterUnits="userSpaceOnUse"><feOffset dy="3" input="SourceAlpha"/><feGaussianBlur stdDeviation="3" result="l"/><feFlood flood-opacity="0.161"/><feComposite operator="in" in2="l"/><feComposite in="SourceGraphic"/></filter><linearGradient id="m" x1="1.008" y1="0.013" x2="-0.435" y2="1.451" gradientUnits="objectBoundingBox"><stop offset="0" stop-color="#e3beac"/><stop offset="1" stop-color="#e12388"/></linearGradient><clipPath id="n"><rect class="a" width="13.136" height="13.136"/></clipPath><clipPath id="o"><rect class="a" width="7.579" height="7.579"/></clipPath><clipPath id="p"><rect class="a" width="19.523" height="19.523"/></clipPath><clipPath id="q"><rect class="a" width="25.877" height="25.877"/></clipPath><filter id="s" x="674.998" y="482" width="25.188" height="327.5" filterUnits="userSpaceOnUse"><feOffset dy="3" input="SourceAlpha"/><feGaussianBlur stdDeviation="3" result="t"/><feFlood flood-opacity="0.161"/><feComposite operator="in" in2="t"/><feComposite in="SourceGraphic"/></filter><linearGradient id="u" x1="1.008" y1="0.013" x2="-0.435" y2="1.451" gradientUnits="objectBoundingBox"><stop offset="0" stop-color="#949bdc"/><stop offset="1" stop-color="#3623e1"/></linearGradient><clipPath id="v"><rect class="a" width="25.305" height="25.305"/></clipPath><clipPath id="w"><rect class="a" width="12.845" height="12.845"/></clipPath><clipPath id="y"><rect class="a" width="7.412" height="7.412"/></clipPath><clipPath id="z"><rect class="a" width="19.091" height="19.091"/></clipPath><clipPath id="ab"><rect width="1366" height="873"/></clipPath></defs><g id="aa" class="b"><rect class="e" width="1366" height="873"/><rect class="c" width="1304" height="819" rx="5" transform="translate(30 17)"/><g transform="translate(-141 22)"><text class="d" transform="translate(875.479 57.376)"><tspan x="-19.963" y="0">QUALITY</tspan></text><text class="d" transform="translate(997.664 57.376)"><tspan x="-25.032" y="0">UX DESIGN</tspan></text><rect class="e" width="91.456" height="40.327" transform="translate(684.566 36.574)"/><text class="d" transform="translate(728.59 57.376)"><tspan x="-29.038" y="0">LEADERSHIP</tspan></text><rect class="f" width="91.456" height="3.601" transform="translate(684.594 36.574)"/><rect class="e" width="617.148" height="495.447" rx="3" transform="translate(557.852 33.693)"/><rect class="g" width="23.044" height="23.044" transform="translate(908.553 487.373)"/><path class="h" d="M5,15.75H7.932v2.932H9.887V13.8H5V15.75ZM7.932,7.932H5V9.887H9.887V5H7.932V7.932ZM13.8,18.682H15.75V15.75h2.932V13.8H13.8v4.887ZM15.75,7.932V5H13.8V9.887h4.887V7.932Z" transform="translate(1141.195 44.536)"/><g class="at" transform="matrix(1, 0, 0, 1, 141, -22)"><rect class="i" width="496.167" height="11.522" transform="translate(978.19 55.33) rotate(90)"/></g><path class="j" d="M3,0H495.447a0,0,0,0,1,0,0V361.5a0,0,0,0,1,0,0H3a3,3,0,0,1-3-3V3A3,3,0,0,1,3,0Z" transform="translate(611.502 34.053) rotate(90)"/><rect class="g" width="8.314" height="8.375" transform="translate(774.703 168.357)"/><g class="k" transform="translate(651.469 252.612)"><rect class="aq" width="467.362" height="231.88" rx="3"/><rect class="g" x="0.5" y="0.5" width="466.362" height="230.88" rx="2.5"/></g><g class="l" transform="translate(651.469 182.039)"><rect class="aq" width="34.566" height="24.484" rx="3"/><rect class="g" x="0.5" y="0.5" width="33.566" height="23.484" rx="2.5"/></g><g class="l" transform="translate(698.275 182.039)"><rect class="aq" width="34.566" height="24.484" rx="3"/><rect class="g" x="0.5" y="0.5" width="33.566" height="23.484" rx="2.5"/></g><g class="l" transform="translate(744.365 182.039)"><rect class="aq" width="34.566" height="24.484" rx="3"/><rect class="g" x="0.5" y="0.5" width="33.566" height="23.484" rx="2.5"/></g><path class="m" d="M7.642,2.566A4.188,4.188,0,0,0,3.821,0,3.761,3.761,0,0,0,0,3.849C0,6.868,3.221,9.2,7.642,13.685c4.421-4.484,7.642-6.818,7.642-9.836A3.761,3.761,0,0,0,11.463,0,4.186,4.186,0,0,0,7.642,2.566Z" transform="translate(1138.576 379.346)"/><path class="m" d="M11.727,3.609H.9V14.435a1.805,1.805,0,0,0,1.805,1.8H9.923a1.8,1.8,0,0,0,1.8-1.8V3.609M8.57,0H4.059l-.9.9H.9a.9.9,0,0,0-.9.9v.9H12.63V1.8a.9.9,0,0,0-.9-.9H9.473L8.57,0" transform="translate(1141.029 323.475)"/><rect class="g" width="14.474" height="28.948" transform="translate(1066.26 469.946)"/><path class="h" d="M1.911,3.821A1.911,1.911,0,1,0,0,1.911,1.916,1.916,0,0,0,1.911,3.821Zm0,1.911A1.911,1.911,0,1,0,3.821,7.642,1.916,1.916,0,0,0,1.911,5.732Zm0,5.732a1.911,1.911,0,1,0,1.911,1.911,1.916,1.916,0,0,0-1.911-1.911Z" transform="translate(1144.219 276.405)"/><g transform="translate(1138.252 424.056) rotate(-8)"><g transform="translate(0 0)"><path class="f" d="M8.947.129a.441.441,0,0,0-.623,0l-8.2,8.2a.441.441,0,0,0,0,.623l2.064,2.067a.444.444,0,0,0,.626,0l8.2-8.2a.444.444,0,0,0,0-.626ZM2.506,10.076,1.064,8.634l7.57-7.57,1.442,1.442Z" transform="translate(2.099 2.096)"/><path class="f" d="M3.852,2.191,1.785.124a.452.452,0,0,0-.623,0L.129,1.158a.441.441,0,0,0,0,.623L2.193,3.845a.444.444,0,0,0,.626,0L3.852,2.811A.437.437,0,0,0,3.852,2.191Zm-1.346.721L1.064,1.471l.408-.408L2.914,2.5Z" transform="translate(11.359 0)"/><path class="f" d="M1.786.129A.442.442,0,0,0,1.056.3L.022,3.4A.438.438,0,0,0,.13,3.85a.443.443,0,0,0,.313.129.417.417,0,0,0,.138-.021l3.1-1.034a.442.442,0,0,0,.172-.73ZM1.139,2.844l.528-1.583L2.722,2.316Z" transform="translate(0 11.356)"/></g></g><rect class="g" width="17.283" height="17.283" transform="translate(1064.1 197.162)"/><g transform="translate(1138.496 468.813)"><path class="f" d="M.749,15.284H12.808a.76.76,0,0,0,.532-.22l1.724-1.721a.749.749,0,0,0,.22-.532V.749A.75.75,0,0,0,14.535,0H.749A.75.75,0,0,0,0,.749V14.532A.751.751,0,0,0,.749,15.284Zm5.059-1.5v-.648a.673.673,0,0,0,.113.021H7.642a.749.749,0,0,0,0-1.5H5.921a.736.736,0,0,0-.113.021v-.648H9.476v2.751ZM4.084,1.5H11.2V6.893H4.084ZM1.5,1.5H2.583V7.642a.748.748,0,0,0,.749.749h8.614a.748.748,0,0,0,.749-.749V1.5h1.082v11l-1.284,1.284H10.971v-3.5a.748.748,0,0,0-.749-.749H5.059a.748.748,0,0,0-.749.749v3.5H1.5V1.5Z" transform="translate(0 0)"/></g><text class="n" transform="translate(729.66 170.033)"><tspan x="-66.788" y="0">LEADERSHIP</tspan></text><text class="o" transform="translate(662.27 273.093)"><tspan x="0" y="0">Acquiring LEADERSHIP skills is essential for the workplace. </tspan></text><text class="p" transform="translate(300.768 167.033)"><tspan x="0" y="0">You are a leadership champ!</tspan></text><text class="p" transform="translate(340.373 207.36)"><tspan x="0" y="0">Keep on keeping on!</tspan></text><g transform="translate(388.564 298.268)"><g transform="translate(0 0)"><path class="q" d="M83.531,14.223c-.1-.038-.192-.019-.288-.058A94.4,94.4,0,0,0,83.9,3.292,3,3,0,0,0,80.9.3H15.045a3,3,0,0,0-2.992,2.992,90.287,90.287,0,0,0,.652,10.874,2.037,2.037,0,0,0-.364.077A19.927,19.927,0,0,0,25.919,51.679a95.071,95.071,0,0,0,9.762,12.984,2.589,2.589,0,0,0,.69,1.132,8.975,8.975,0,0,1-6.348,15.324A11.983,11.983,0,0,0,18.056,93.085a3,3,0,0,0,2.992,2.992H74.939a3,3,0,0,0,2.992-2.992A11.983,11.983,0,0,0,65.964,81.118a8.977,8.977,0,0,1-6.348-15.324,3.006,3.006,0,0,0,.69-1.132A93.254,93.254,0,0,0,70.049,51.7a19.6,19.6,0,0,0,5.926.921,19.941,19.941,0,0,0,7.556-38.4ZM14.566,45.542a13.89,13.89,0,0,1-.94-25.239,90.449,90.449,0,0,0,9.167,26.006A13.94,13.94,0,0,1,14.566,45.542ZM65.945,87.1a5.972,5.972,0,0,1,5.178,2.992h-46.3A6,6,0,0,1,30,87.1,14.853,14.853,0,0,0,44.848,73.485c.729.595,1.227.959,1.362,1.055a3.027,3.027,0,0,0,1.764.575,2.985,2.985,0,0,0,1.764-.575c.134-.1.633-.46,1.362-1.055A14.853,14.853,0,0,0,65.945,87.1ZM47.974,68.287C41.492,62.764,19.3,41.323,18.095,6.264h59.76C76.665,41.323,54.457,62.764,47.974,68.287ZM88.844,37.966a13.949,13.949,0,0,1-15.688,8.343,89.751,89.751,0,0,0,9.186-25.987A13.951,13.951,0,0,1,88.844,37.966Z" transform="translate(0.012 -0.3)"/></g></g><g transform="translate(336.533 245.17)"><g transform="translate(0 0)"><g class="r"><path class="a" d="M20.278,2.531l5.485,11.683L38.03,16.089l-8.876,9.1,2.093,12.844L20.278,31.967,9.309,38.028,11.4,25.184,2.526,16.1l12.267-1.874L20.278,2.531m0-2.531a2.54,2.54,0,0,0-2.3,1.46L13.073,11.919,2.145,13.59A2.534,2.534,0,0,0,.717,17.866l7.975,8.178L6.81,37.622a2.532,2.532,0,0,0,3.724,2.629l9.744-5.387,9.744,5.387a2.532,2.532,0,0,0,3.724-2.629L31.864,26.044l7.984-8.178a2.511,2.511,0,0,0,.584-2.572,2.537,2.537,0,0,0-2.02-1.7L27.483,11.919,22.574,1.46A2.532,2.532,0,0,0,20.278,0" transform="translate(0.005)"/></g></g></g><g transform="translate(463.807 248.582)"><g transform="translate(0 0)"><g class="s"><path class="a" d="M10.291,1.285l2.784,5.931,6.227.951L14.8,12.788l1.063,6.52-5.568-3.081L4.722,19.3l1.063-6.52L1.279,8.171,7.506,7.22l2.784-5.935m0-1.285A1.29,1.29,0,0,0,9.125.741L6.633,6.05,1.086,6.9a1.286,1.286,0,0,0-.725,2.17L4.409,13.22,3.454,19.1a1.285,1.285,0,0,0,1.89,1.334L10.291,17.7l4.946,2.735a1.285,1.285,0,0,0,1.89-1.334l-.955-5.877,4.053-4.151a1.274,1.274,0,0,0,.3-1.306A1.288,1.288,0,0,0,19.5,6.9L13.948,6.05,11.456.741A1.285,1.285,0,0,0,10.291,0" transform="translate(0.006)"/></g></g></g><g transform="translate(326.262 112.478)"><g transform="translate(0 0)"><g class="s"><path class="a" d="M10.291,1.285l2.784,5.931,6.227.951L14.8,12.788l1.063,6.52-5.568-3.081L4.722,19.3l1.063-6.52L1.279,8.171,7.506,7.22l2.784-5.935m0-1.285A1.29,1.29,0,0,0,9.125.741L6.633,6.05,1.086,6.9a1.286,1.286,0,0,0-.725,2.17L4.409,13.22,3.454,19.1a1.285,1.285,0,0,0,1.89,1.334L10.291,17.7l4.946,2.735a1.285,1.285,0,0,0,1.89-1.334l-.955-5.877,4.053-4.151a1.274,1.274,0,0,0,.3-1.306A1.288,1.288,0,0,0,19.5,6.9L13.948,6.05,11.456.741A1.285,1.285,0,0,0,10.291,0" transform="translate(0.006)"/></g></g></g><g transform="translate(521.416 100.305)"><g transform="translate(0 0)"><g class="t"><path class="a" d="M5.935.741,7.542,4.163l3.593.549-2.6,2.666.613,3.762L5.935,9.363,2.722,11.138l.613-3.762L.736,4.715l3.593-.549L5.935.741m0-.741a.744.744,0,0,0-.673.428L3.825,3.491l-3.2.49A.742.742,0,0,0,.206,5.233l2.336,2.4L1.99,11.019a.742.742,0,0,0,1.091.77l2.854-1.578,2.854,1.578a.742.742,0,0,0,1.091-.77L9.329,7.628l2.338-2.4a.735.735,0,0,0,.171-.753.743.743,0,0,0-.592-.5l-3.2-.49L6.608.428A.742.742,0,0,0,5.935,0" transform="translate(0.006)"/></g></g></g><g transform="translate(515.725 233.528)"><g transform="translate(0 0)"><g class="u"><path class="a" d="M15.3,1.91l4.138,8.814,9.255,1.414-6.7,6.868,1.579,9.69L15.3,24.117,7.021,28.689,8.6,19,1.9,12.144l9.255-1.414L15.3,1.91M15.3,0a1.917,1.917,0,0,0-1.732,1.1l-3.7,7.89L1.617,10.253A1.911,1.911,0,0,0,.539,13.479l6.017,6.17-1.42,8.735a1.91,1.91,0,0,0,2.81,1.983L15.3,26.3l7.351,4.064a1.91,1.91,0,0,0,2.81-1.983l-1.42-8.735,6.023-6.17a1.894,1.894,0,0,0,.441-1.94,1.914,1.914,0,0,0-1.524-1.285L20.733,8.992l-3.7-7.89A1.91,1.91,0,0,0,15.3,0" transform="translate(0.006)"/></g></g></g><line class="v" x2="219.638" transform="translate(326.691 402.402)"/><line class="v" x2="144.07" transform="translate(364.746 416.076)"/></g><text class="w" transform="translate(1082.18 340.958)"><tspan x="-11.978" y="0">QUALITY</tspan></text><text class="w" transform="translate(1159.932 340.958)"><tspan x="-15.019" y="0">UX DESIGN</tspan></text><rect class="e" width="58.339" height="25.724" transform="translate(961.156 328.067)"/><text class="w" transform="translate(987.74 340.958)"><tspan x="-17.423" y="0">LEADERSHIP</tspan></text><rect class="f" width="58.339" height="2.297" transform="translate(961.174 328.067)"/><rect class="e" width="393.673" height="316.041" rx="3" transform="translate(880.326 326.229)"/><path class="x" d="M5,11.858H6.87v1.87H8.117V10.611H5v1.247ZM6.87,6.87H5V8.117H8.117V5H6.87V6.87Zm3.741,6.858h1.247v-1.87h1.87V10.611H10.611v3.117ZM11.858,6.87V5H10.611V8.117h3.117V6.87Z" transform="translate(1250.625 331.335)"/><g class="as" transform="matrix(1, 0, 0, 1, 0, 0)"><rect class="y" width="316.5" height="7.35" transform="translate(1238.4 326) rotate(90)"/></g><path class="z" d="M3,0H316.041a0,0,0,0,1,0,0V230.6a0,0,0,0,1,0,0H3a3,3,0,0,1-3-3V3A3,3,0,0,1,3,0Z" transform="translate(914.549 326.459) rotate(90)"/><rect class="g" width="5.304" height="5.342" transform="translate(1018.654 412.13)"/><g class="l" transform="translate(940.043 420.858)"><rect class="aq" width="22.049" height="15.618" rx="3"/><rect class="g" x="0.5" y="0.5" width="21.049" height="14.618" rx="2.5"/></g><g class="l" transform="translate(969.902 420.858)"><rect class="aq" width="22.049" height="15.618" rx="3"/><rect class="g" x="0.5" y="0.5" width="21.049" height="14.618" rx="2.5"/></g><g class="l" transform="translate(999.301 420.858)"><rect class="aq" width="22.049" height="15.618" rx="3"/><rect class="g" x="0.5" y="0.5" width="21.049" height="14.618" rx="2.5"/></g><rect class="g" width="11.025" height="11.025" transform="translate(1203.258 430.505)"/><text class="aa" transform="translate(975.184 413.89)"><tspan x="-27.949" y="0">QUALITY</tspan></text><text class="ab" transform="translate(732.336 410.89)"><tspan x="0" y="0">You are a quality champ!</tspan></text><text class="ab" transform="translate(741.6 436.614)"><tspan x="0" y="0">Keep on keeping on!</tspan></text><g transform="translate(732.598 376.486)"><g transform="translate(0 0)"><g class="ac"><path class="a" d="M6.562.82,8.338,4.6l3.972.607L9.436,8.157l.678,4.159L6.562,10.351,3.01,12.313l.678-4.159L.814,5.212l3.972-.607L6.562.82m0-.82a.823.823,0,0,0-.743.473L4.229,3.859.69,4.4A.82.82,0,0,0,.228,5.785L2.811,8.433,2.2,12.182a.82.82,0,0,0,1.206.851l3.155-1.744,3.155,1.744a.82.82,0,0,0,1.206-.851l-.609-3.749L12.9,5.785a.813.813,0,0,0,.189-.833.822.822,0,0,0-.654-.552L8.895,3.859,7.306.473A.82.82,0,0,0,6.562,0" transform="translate(0.006)"/></g></g></g><g transform="translate(857.084 368.721)"><g transform="translate(0 0)"><g class="ad"><path class="a" d="M3.784.473,4.809,2.656l2.292.35-1.658,1.7.391,2.4L3.784,5.973,1.734,7.1l.391-2.4L.467,3.008l2.292-.35L3.784.473m0-.473a.475.475,0,0,0-.429.273L2.438,2.227.4,2.539a.473.473,0,0,0-.267.8l1.49,1.528L1.267,7.029a.473.473,0,0,0,.7.491L3.784,6.514,5.6,7.52a.473.473,0,0,0,.7-.491L5.949,4.866,7.44,3.338a.469.469,0,0,0,.109-.481.474.474,0,0,0-.377-.318L5.13,2.227,4.213.273A.473.473,0,0,0,3.784,0" transform="translate(0.006)"/></g></g></g><g transform="translate(853.453 453.702)"><g transform="translate(0 0)"><g class="ae"><path class="a" d="M9.756,1.218,12.4,6.841l5.9.9-4.272,4.381L15.035,18.3,9.756,15.384,4.477,18.3,5.484,12.12,1.213,7.747l5.9-.9L9.756,1.218M9.756,0a1.223,1.223,0,0,0-1.1.7L6.288,5.736l-5.259.8A1.219,1.219,0,0,0,.342,8.6L4.18,12.534l-.906,5.572a1.219,1.219,0,0,0,1.792,1.265l4.689-2.593,4.689,2.593a1.218,1.218,0,0,0,1.792-1.265l-.906-5.572L19.174,8.6a1.208,1.208,0,0,0,.281-1.238,1.221,1.221,0,0,0-.972-.82l-5.259-.8L10.861.7a1.218,1.218,0,0,0-1.1-.7" transform="translate(0.006)"/></g></g></g><rect class="g" width="14.7" height="14.7" transform="translate(1104.035 615.627)"/><g class="k" transform="translate(940.043 465.875)"><rect class="aq" width="298.126" height="147.914" rx="3"/><rect class="g" x="0.5" y="0.5" width="297.126" height="146.914" rx="2.5"/></g><path class="x" d="M4.875,1.637A2.671,2.671,0,0,0,2.437,0,2.4,2.4,0,0,0,0,2.455C0,4.381,2.054,5.87,4.875,8.73,7.7,5.87,9.75,4.381,9.75,2.455A2.4,2.4,0,0,0,7.312,0,2.67,2.67,0,0,0,4.875,1.637Z" transform="translate(1250.766 546.718)"/><path class="x" d="M7.481,2.3H.575V9.208a1.151,1.151,0,0,0,1.152,1.151h4.6A1.151,1.151,0,0,0,7.481,9.208V2.3M5.466,0H2.589L2.014.576H.575A.575.575,0,0,0,0,1.151v.576H8.057V1.151A.576.576,0,0,0,7.481.576H6.042L5.466,0" transform="translate(1252.33 511.079)"/><rect class="g" width="9.233" height="18.466" transform="translate(1204.635 604.511)"/><path class="x" d="M1.219,2.437A1.219,1.219,0,1,0,0,1.219,1.222,1.222,0,0,0,1.219,2.437Zm0,1.219A1.219,1.219,0,1,0,2.437,4.875,1.222,1.222,0,0,0,1.219,3.656Zm0,3.656A1.219,1.219,0,1,0,2.437,8.531,1.222,1.222,0,0,0,1.219,7.312Z" transform="translate(1254.365 481.053)"/><g transform="translate(1250.559 575.238) rotate(-8)"><g transform="translate(0 0)"><path class="af" d="M5.707.082a.281.281,0,0,0-.4,0L.082,5.31a.281.281,0,0,0,0,.4L1.4,7.026a.283.283,0,0,0,.4,0L7.026,1.8a.283.283,0,0,0,0-.4ZM1.6,6.427l-.92-.92L5.508.679l.92.92Z" transform="translate(1.339 1.337)"/><path class="af" d="M2.457,1.4,1.139.079a.288.288,0,0,0-.4,0L.082.739a.281.281,0,0,0,0,.4L1.4,2.453a.283.283,0,0,0,.4,0l.659-.659A.279.279,0,0,0,2.457,1.4Zm-.859.46L.679.938l.26-.26.92.92Z" transform="translate(7.246 0)"/><path class="af" d="M1.139.082a.282.282,0,0,0-.466.11L.014,2.168a.279.279,0,0,0,.068.288.283.283,0,0,0,.2.082A.266.266,0,0,0,.37,2.524l1.976-.659a.282.282,0,0,0,.11-.466ZM.726,1.814,1.063.8l.673.673Z" transform="translate(0 7.244)"/></g></g><g transform="translate(1250.715 603.788)"><path class="af" d="M.478,9.749H8.17a.485.485,0,0,0,.339-.14l1.1-1.1a.478.478,0,0,0,.14-.339V.478A.478.478,0,0,0,9.272,0H.478A.478.478,0,0,0,0,.478V9.27A.479.479,0,0,0,.478,9.749ZM3.7,8.792V8.379a.429.429,0,0,0,.072.014h1.1a.478.478,0,0,0,0-.955h-1.1a.47.47,0,0,0-.072.014V7.037h2.34V8.792ZM2.605.957H7.142V4.4H2.605ZM.957.957h.69V4.875a.477.477,0,0,0,.478.478H7.62A.477.477,0,0,0,8.1,4.875V.957h.69V7.975l-.819.819H7V6.559a.477.477,0,0,0-.478-.478H3.227a.477.477,0,0,0-.478.478V8.794H.957V.957Z" transform="translate(0 0)"/></g><text class="ag" transform="translate(946.934 478.01)"><tspan x="0" y="0">Acquiring QUALITY skills is essential for the workplace. </tspan></text><g transform="translate(772.34 494.999)"><g transform="translate(0 0)"><path class="q" d="M53.279,9.182c-.061-.024-.122-.012-.184-.037a60.218,60.218,0,0,0,.416-6.937A1.911,1.911,0,0,0,51.6.3H9.593A1.911,1.911,0,0,0,7.684,2.208,57.593,57.593,0,0,0,8.1,9.145a1.3,1.3,0,0,0-.232.049,12.711,12.711,0,0,0,8.661,23.88,60.645,60.645,0,0,0,6.227,8.282,1.651,1.651,0,0,0,.44.722,5.725,5.725,0,0,1-4.049,9.775,7.644,7.644,0,0,0-7.634,7.634A1.911,1.911,0,0,0,13.422,61.4H47.8a1.911,1.911,0,0,0,1.908-1.908,7.644,7.644,0,0,0-7.634-7.634,5.727,5.727,0,0,1-4.049-9.775,1.917,1.917,0,0,0,.44-.722,59.486,59.486,0,0,0,6.215-8.27,12.5,12.5,0,0,0,3.78.587,12.72,12.72,0,0,0,4.82-24.492ZM9.287,29.159a8.86,8.86,0,0,1-.6-16.1,57.7,57.7,0,0,0,5.848,16.589A8.892,8.892,0,0,1,9.287,29.159ZM42.061,55.67a3.81,3.81,0,0,1,3.3,1.908H15.832a3.825,3.825,0,0,1,3.3-1.908A9.475,9.475,0,0,0,28.6,46.984c.465.379.783.612.869.673a1.931,1.931,0,0,0,1.125.367,1.9,1.9,0,0,0,1.126-.367c.086-.061.4-.294.869-.673a9.475,9.475,0,0,0,9.469,8.686Zm-11.463-12c-4.135-3.523-18.289-17.2-19.06-39.564h38.12C48.9,26.468,34.733,40.145,30.6,43.668Zm26.07-19.341a8.9,8.9,0,0,1-10.007,5.322,57.251,57.251,0,0,0,5.86-16.577A8.9,8.9,0,0,1,56.668,24.327Z" transform="translate(0.012 -0.3)"/></g></g><g transform="translate(739.15 461.129)"><g transform="translate(0 0)"><g class="ah"><path class="a" d="M12.933,1.615l3.5,7.453,7.825,1.2L18.6,16.07l1.335,8.193-7-3.871-7,3.866,1.335-8.193-5.662-5.8,7.825-1.2,3.5-7.458m0-1.615a1.621,1.621,0,0,0-1.465.932L8.337,7.6,1.366,8.669A1.616,1.616,0,0,0,.455,11.4l5.087,5.217L4.342,24a1.615,1.615,0,0,0,2.376,1.677l6.216-3.437,6.216,3.437A1.615,1.615,0,0,0,21.524,24l-1.2-7.385L25.416,11.4a1.6,1.6,0,0,0,.373-1.641A1.618,1.618,0,0,0,24.5,8.669L17.529,7.6,14.4.932A1.615,1.615,0,0,0,12.933,0" transform="translate(0.006)"/></g></g></g><g transform="translate(820.336 463.305)"><g transform="translate(0 0)"><g class="ac"><path class="a" d="M6.562.82,8.338,4.6l3.972.607L9.436,8.157l.678,4.159L6.562,10.351,3.01,12.313l.678-4.159L.814,5.212l3.972-.607L6.562.82m0-.82a.823.823,0,0,0-.743.473L4.229,3.859.69,4.4A.82.82,0,0,0,.228,5.785L2.811,8.433,2.2,12.182a.82.82,0,0,0,1.206.851l3.155-1.744,3.155,1.744a.82.82,0,0,0,1.206-.851l-.609-3.749L12.9,5.785a.813.813,0,0,0,.189-.833.822.822,0,0,0-.654-.552L8.895,3.859,7.306.473A.82.82,0,0,0,6.562,0" transform="translate(0.006)"/></g></g></g><line class="v" x2="140.105" transform="translate(732.871 561.426)"/><line class="v" x2="91.901" transform="translate(757.146 570.148)"/><text class="w" transform="translate(538.688 502.76)"><tspan x="-11.978" y="0">QUALITY</tspan></text><text class="w" transform="translate(614.785 502.76)"><tspan x="-15.019" y="0">UX DESIGN</tspan></text><rect class="e" width="57.049" height="25.155" transform="translate(420.076 490.021)"/><text class="w" transform="translate(446.447 502.76)"><tspan x="-17.423" y="0">LEADERSHIP</tspan></text><rect class="f" width="57.049" height="2.246" transform="translate(420.094 490.021)"/><rect class="e" width="384.966" height="309.051" rx="3" transform="translate(341.033 488.225)"/><path class="ai" d="M5,11.706H6.829v1.829H8.048V10.487H5v1.219ZM6.829,6.829H5V8.048H8.048V5H6.829V6.829Zm3.658,6.706h1.219V11.706h1.829V10.487H10.487v3.048Zm1.219-6.706V5H10.487V8.048h3.048V6.829Z" transform="translate(703.031 493.107)"/><g class="ar" transform="matrix(1, 0, 0, 1, 0, 0)"><rect class="aj" width="309.5" height="7.187" transform="translate(691.19 488) rotate(90)"/></g><path class="ak" d="M3,0H309.051a0,0,0,0,1,0,0V225.5a0,0,0,0,1,0,0H3a3,3,0,0,1-3-3V3A3,3,0,0,1,3,0Z" transform="translate(374.5 488.449) rotate(90)"/><rect class="g" width="5.186" height="5.224" transform="translate(476.301 572.225)"/><g class="k" transform="translate(399.43 624.782)"><rect class="aq" width="291.532" height="144.643" rx="3"/><rect class="g" x="0.5" y="0.5" width="290.532" height="143.643" rx="2.5"/></g><g class="l" transform="translate(399.43 580.76)"><rect class="aq" width="21.562" height="15.273" rx="3"/><rect class="g" x="0.5" y="0.5" width="20.562" height="14.273" rx="2.5"/></g><g class="l" transform="translate(428.627 580.76)"><rect class="aq" width="21.562" height="15.273" rx="3"/><rect class="g" x="0.5" y="0.5" width="20.562" height="14.273" rx="2.5"/></g><g class="l" transform="translate(457.377 580.76)"><rect class="aq" width="21.562" height="15.273" rx="3"/><rect class="g" x="0.5" y="0.5" width="20.562" height="14.273" rx="2.5"/></g><path class="ai" d="M7.315,2.252H.562V9A1.126,1.126,0,0,0,1.688,10.13h4.5A1.125,1.125,0,0,0,7.315,9V2.252M5.346,0H2.532L1.97.563H.562A.563.563,0,0,0,0,1.125v.563H7.878V1.125A.563.563,0,0,0,7.315.563H5.909L5.346,0" transform="translate(704.809 668.985)"/><path class="ai" d="M1.192,2.384A1.192,1.192,0,1,0,0,1.192,1.2,1.2,0,0,0,1.192,2.384Zm0,1.192A1.192,1.192,0,1,0,2.384,4.767,1.2,1.2,0,0,0,1.192,3.575Zm0,3.575A1.192,1.192,0,1,0,2.384,8.342,1.2,1.2,0,0,0,1.192,7.151Z" transform="translate(706.799 639.624)"/><rect class="g" width="10.781" height="10.781" transform="translate(656.822 590.193)"/><text class="al" transform="translate(439.41 572.3)"><tspan x="-32.541" y="0">UX DESIGN</tspan></text><text class="ag" transform="translate(406.168 636.825)"><tspan x="0" y="0" xml:space="preserve">Acquiring UX DESIGN  skills is essential for the workplace. </tspan></text><text class="ab" transform="translate(180.668 571.3)"><tspan x="0" y="0">You are a UX design champ!</tspan></text><text class="ab" transform="translate(205.373 596.455)"><tspan x="0" y="0">Keep on keeping on!</tspan></text><g transform="translate(235.436 653.261)"><g transform="translate(0 0)"><path class="q" d="M52.1,8.985c-.06-.024-.12-.012-.179-.036a58.886,58.886,0,0,0,.407-6.783A1.869,1.869,0,0,0,50.462.3H9.38A1.869,1.869,0,0,0,7.514,2.166a56.319,56.319,0,0,0,.407,6.783A1.271,1.271,0,0,0,7.694,9a12.43,12.43,0,0,0,8.47,23.352,59.3,59.3,0,0,0,6.089,8.1,1.615,1.615,0,0,0,.431.706,5.6,5.6,0,0,1-3.96,9.559,7.475,7.475,0,0,0-7.465,7.465,1.869,1.869,0,0,0,1.866,1.866H46.741a1.869,1.869,0,0,0,1.866-1.866,7.475,7.475,0,0,0-7.465-7.465,5.6,5.6,0,0,1-3.96-9.559,1.875,1.875,0,0,0,.431-.706,58.17,58.17,0,0,0,6.077-8.087,12.226,12.226,0,0,0,3.7.574A12.439,12.439,0,0,0,52.1,8.985ZM9.081,28.521A8.664,8.664,0,0,1,8.5,12.778,56.421,56.421,0,0,0,14.214,29,8.7,8.7,0,0,1,9.081,28.521ZM41.131,54.445a3.726,3.726,0,0,1,3.23,1.866H15.482a3.74,3.74,0,0,1,3.23-1.866,9.265,9.265,0,0,0,9.259-8.494c.455.371.766.6.849.658a1.888,1.888,0,0,0,1.1.359,1.862,1.862,0,0,0,1.1-.359c.084-.06.395-.287.849-.658a9.265,9.265,0,0,0,9.259,8.494ZM29.921,42.709c-4.044-3.445-17.885-16.82-18.639-38.689H48.56C47.818,25.889,33.965,39.264,29.921,42.709ZM55.415,23.8A8.7,8.7,0,0,1,45.629,29a55.985,55.985,0,0,0,5.73-16.21A8.7,8.7,0,0,1,55.415,23.8Z" transform="translate(0.012 -0.3)"/></g></g><g transform="translate(202.979 620.14)"><g transform="translate(0 0)"><g class="am"><path class="a" d="M12.647,1.579l3.421,7.288,7.652,1.169-5.537,5.678,1.306,8.012L12.647,19.94,5.8,23.721,7.11,15.709,1.573,10.041,9.226,8.872l3.421-7.293m0-1.579a1.585,1.585,0,0,0-1.432.911L8.153,7.435,1.336,8.477a1.58,1.58,0,0,0-.891,2.667l4.975,5.1L4.246,23.468a1.58,1.58,0,0,0,2.323,1.64l6.078-3.361,6.078,3.361a1.579,1.579,0,0,0,2.323-1.64l-1.174-7.222,4.98-5.1a1.566,1.566,0,0,0,.364-1.6,1.583,1.583,0,0,0-1.26-1.063L17.141,7.435,14.079.911A1.579,1.579,0,0,0,12.647,0" transform="translate(0.006)"/></g></g></g><g transform="translate(282.369 622.268)"><g transform="translate(0 0)"><g class="an"><path class="a" d="M6.417.8,8.153,4.5l3.884.593L9.227,7.977l.663,4.067L6.417,10.122,2.943,12.041l.663-4.067L.8,5.1,4.68,4.5,6.417.8m0-.8A.8.8,0,0,0,5.69.462L4.136,3.774.675,4.3A.8.8,0,0,0,.223,5.657l2.525,2.59-.6,3.666a.8.8,0,0,0,1.179.832l3.085-1.706L9.5,12.745a.8.8,0,0,0,1.179-.832l-.6-3.666,2.528-2.59a.8.8,0,0,0,.185-.814.8.8,0,0,0-.64-.539L8.7,3.774,7.144.462A.8.8,0,0,0,6.417,0" transform="translate(0.006)"/></g></g></g><g transform="translate(196.572 537.369)"><g transform="translate(0 0)"><g class="an"><path class="a" d="M6.417.8,8.153,4.5l3.884.593L9.227,7.977l.663,4.067L6.417,10.122,2.943,12.041l.663-4.067L.8,5.1,4.68,4.5,6.417.8m0-.8A.8.8,0,0,0,5.69.462L4.136,3.774.675,4.3A.8.8,0,0,0,.223,5.657l2.525,2.59-.6,3.666a.8.8,0,0,0,1.179.832l3.085-1.706L9.5,12.745a.8.8,0,0,0,1.179-.832l-.6-3.666,2.528-2.59a.8.8,0,0,0,.185-.814.8.8,0,0,0-.64-.539L8.7,3.774,7.144.462A.8.8,0,0,0,6.417,0" transform="translate(0.006)"/></g></g></g><g transform="translate(318.305 529.776)"><g transform="translate(0 0)"><g class="ao"><path class="a" d="M3.7.462,4.7,2.6l2.241.342L5.322,4.6,5.7,6.949l-2-1.109-2,1.107L2.078,4.6.457,2.941,2.7,2.6,3.7.462M3.7,0a.464.464,0,0,0-.42.267l-.9,1.911-2,.305a.463.463,0,0,0-.261.781L1.583,4.758,1.239,6.874a.463.463,0,0,0,.68.48L3.7,6.37l1.78.984a.463.463,0,0,0,.68-.48L5.817,4.758,7.276,3.264a.459.459,0,0,0,.107-.47.464.464,0,0,0-.369-.311l-2-.305L4.12.267A.463.463,0,0,0,3.7,0" transform="translate(0.006)"/></g></g></g><g transform="translate(314.756 612.878)"><g transform="translate(0 0)"><g class="ap"><path class="a" d="M9.54,1.191l2.581,5.5,5.773.882-4.177,4.284L14.7,17.9,9.54,15.044,4.378,17.9l.985-6.044L1.186,7.575l5.773-.882,2.581-5.5M9.54,0A1.2,1.2,0,0,0,8.459.687L6.149,5.609,1.006,6.4A1.192,1.192,0,0,0,.334,8.408l3.753,3.849L3.2,17.705a1.192,1.192,0,0,0,1.753,1.237L9.54,16.407l4.586,2.535a1.191,1.191,0,0,0,1.753-1.237l-.886-5.449,3.757-3.849a1.182,1.182,0,0,0,.275-1.21,1.194,1.194,0,0,0-.951-.8L12.93,5.609,10.62.687A1.191,1.191,0,0,0,9.54,0" transform="translate(0.006)"/></g></g></g><rect class="g" width="14.374" height="14.374" transform="translate(559.795 771.222)"/><path class="ai" d="M4.767,1.6A2.612,2.612,0,0,0,2.384,0,2.346,2.346,0,0,0,0,2.4C0,4.284,2.009,5.74,4.767,8.537,7.525,5.74,9.534,4.284,9.534,2.4A2.346,2.346,0,0,0,7.151,0,2.611,2.611,0,0,0,4.767,1.6Z" transform="translate(703.279 703.837)"/><rect class="g" width="9.029" height="18.058" transform="translate(658.17 760.352)"/><g transform="translate(703.076 731.726) rotate(-8)"><g transform="translate(0 0)"><path class="aj" d="M5.581.08a.275.275,0,0,0-.388,0L.08,5.193a.275.275,0,0,0,0,.388L1.368,6.87a.277.277,0,0,0,.39,0L6.87,1.758a.277.277,0,0,0,0-.39Zm-4.018,6.2-.9-.9L5.386.664l.9.9Z" transform="translate(1.309 1.308)"/><path class="aj" d="M2.4,1.367,1.114.077a.282.282,0,0,0-.388,0L.08.722a.275.275,0,0,0,0,.388L1.368,2.4a.277.277,0,0,0,.39,0L2.4,1.753A.272.272,0,0,0,2.4,1.367Zm-.84.45-.9-.9L.918.663l.9.9Z" transform="translate(7.085 0)"/><path class="aj" d="M1.114.081A.275.275,0,0,0,.659.188L.014,2.12A.273.273,0,0,0,.081,2.4a.277.277,0,0,0,.2.08.26.26,0,0,0,.086-.013l1.932-.645A.275.275,0,0,0,2.4,1.368ZM.71,1.774,1.04.787l.658.658Z" transform="translate(0 7.084)"/></g></g><g transform="translate(703.229 759.644)"><path class="aj" d="M.467,9.534H7.989A.474.474,0,0,0,8.321,9.4L9.4,8.323a.467.467,0,0,0,.137-.332V.467A.468.468,0,0,0,9.067,0H.467A.468.468,0,0,0,0,.467v8.6A.468.468,0,0,0,.467,9.534ZM3.623,8.6v-.4a.42.42,0,0,0,.071.013H4.767a.467.467,0,1,0,0-.934H3.693a.459.459,0,0,0-.071.013v-.4H5.911V8.6ZM2.547.936H6.984V4.3H2.547ZM.936.936h.675V4.767a.467.467,0,0,0,.467.467H7.452a.467.467,0,0,0,.467-.467V.936h.675V7.8l-.8.8h-.95V6.414a.467.467,0,0,0-.467-.467H3.156a.467.467,0,0,0-.467.467V8.6H.936V.936Z" transform="translate(0 0)"/></g><line class="v" x2="137.007" transform="translate(196.84 718.219)"/><line class="v" x2="89.868" transform="translate(220.578 726.748)"/></g></svg>