<svg xmlns="http://www.w3.org/2000/svg" xmlns:xlink="http://www.w3.org/1999/xlink" viewBox="0 0 246 345"><defs><style>.cls-1,.cls-6,.cls-8,.cls-9{fill:none;}.cls-2{clip-path:url(#clip-path);}.cls-3{fill:#f1f2f2;opacity:0.75;isolation:isolate;}.cls-4{fill:#e6e7e8;}.cls-5{fill:#fff;stroke:#e6e7e8;}.cls-5,.cls-8,.cls-9{stroke-miterlimit:10;}.cls-6{stroke:#a6a8ab;stroke-linejoin:round;stroke-width:2px;}.cls-6,.cls-9{stroke-linecap:round;}.cls-7{fill:#bcbec0;}.cls-8{stroke:#bcbec0;}.cls-8,.cls-9{stroke-width:6px;}.cls-9{stroke:#939598;}.cls-10{fill:#6d6e71;}</style><clipPath id="clip-path" transform="translate(-19)"><rect class="cls-1" y="72" width="288" height="288"/></clipPath></defs><title>Asset 2</title><g id="Layer_2" data-name="Layer 2"><g id="Layer_1-2" data-name="Layer 1"><g class="cls-2"><g id="Maps_:_Navigation_7" data-name="Maps : Navigation 7"><rect class="cls-3" x="2" y="1" width="243" height="341"/><polygon class="cls-4" points="240.3 343 245 343 245 335.9 240.3 343"/><polygon class="cls-4" points="2 31.5 8.9 1 2 1 2 31.5"/><path class="cls-4" d="M20,39.8l36.33,7.4-3.2,16L20,57.2v4.9l32.13,5.8-1.5,8L21,70.1V80l-.07.1,9.5,30.8L21,109v9.9l20.23,3.9-6.7,33.1-1,4.6-12.1-1.6L20,156.3v12.3l2,.1V189H20v5h2v50l-1,.1v7.3l1-.1v46.1l-1-.4v5.1l1,.4v30.7l-1,.4v5.1l1-.4V342h7V304.6l31,9.2L47.53,342h10.6l2.7-5.5,16,4.8c-.1.5-.2.9-.3.7h30.7l-11.8-2.8,10.1-30.8,16.8,5.5,8,28.1h5l-7.5-26.3,30.9,10-5,17.3h7.6l3.4-11.9,1.8,1.9,8.6,10H188l-14.3-16.5-3.6,3.2,3.5-3.3-5.8-6.1,5.7-19.5-4.7-1.4,4.8,1.4,2.5-8.8,33.6,13.3L197.33,343h5.1l5.5-16.8,7.3,16.8h5.3l-10.3-23.7,9.5-28.7,17.8,20.2c-4,10.1-8.4,21.4-12.6,32.2h5.2c1.8-4.7,3.6-9.3,5.5-14l7.6,8.6-2.7,5.4H246l.7-1.5,1.1,1.5h6.5l-16.7-19.1c4.4-11.2,8.7-22.1,12-30.6,1.9-4.8,3.4-8.7,4.5-11.5.4-1,.7-1.9,1-2.6l7,.2L264,294V218.4l-2.47-19,2.47.3V190h-.27l.27-1.3V142.9l-2.67,12.8h0l-4.1,19-2.4-18.5h0l-4.1-32L265,126.8v-9.9l-49.87-9.4L218,91.6l46,8.9V95.6l-23.47-4.7,5.2-24.2L263,80.4V74.3L246.83,61.4l5.3-24.8L264,40.2V32.6l-10.37-3.1,3.9-18L264,18.7V4l-2.57-3h-12.9l5,6L249,28.1,213,17l12.8-16H216l.3.5-10.7,13.2-11-3.4L198.83,1h-5.3l-3.6,8.9-16.3-5,1.2-3.9h-5.1L169,3.6,159.73,1h-31.1l23.3,5.9-5.5,29.8-8.2-1.8L124.83,2h-5.2l12.9,31.5-31.4-7.1L106.43,1H99l-2.5,12c-5.7-.5-17.4-1.7-25.3-2.3L73.13,2h-7.4l-1.9,8.3a41.65,41.65,0,0,0-9.3,1.1L56.33,1h-4.9l-2.2,12.2c-7.4,3-14.7,9.2-17.3,21.5L20,32.4Zm35.83,47,24.3,4.6-2.9,14-24-5.4Zm147.8,28.4-3.7,20.2-29.3-5.2h0l-32.7-6,3.8-20.9,27.6,5.3h0ZM193.13,225l6.2-33.4,25.1,3.2,2.8,30.2Zm34.6,5,1.2,12.8L190,241.6l2.2-11.6ZM136.33,92.3l-19.5-3.7c1-5.5,1.8-10.6,2.6-15.3l19.7,4Zm-1.8,9.6-4.1,22.2-20.6,4.4c1.9-11.1,3.7-21.2,5.3-30.3Zm-29.8,27.7-26.3,5.6,8.8-42.3,23.1,4.4C108.63,107.1,106.83,117.8,104.73,129.6ZM82.13,82l-8.5-1.6,5.9-28.3L88,53.9Zm-29.9,22.9,24,5.3-5.6,26.6-26,5.5ZM99,223.7l-19.7,45.5-17-8.1L66,217.2Zm-4.8,35.7,14.2,5.6-4.8,13.6-15.3-5.5Zm18.7,7.4,32.4,12.8-3.7,12.7-33.4-12Zm-15.8-14.1,2.9-6.6,36.4,1.1-5.1,19Zm5.9-13.8,10.3-23.9h24l-18.2,24.4Zm22,.6,18.4-24.5h11.7c1.5,10.1,3,20,3.8,25.6Zm-9.6-29.5,11.9-27.7,23.3,3c.8,5.4,2.2,14.8,3.7,24.7Zm-4.1-14.7-20-2.6c1.2-4.9,2.4-9.9,3.5-14.4l22.5,2.9Zm-2,4.7L101,219.1l-15.2-3c.7-3.4,2.4-10.6,4.3-18.7Zm-28.2,15.2-14.6-2.9,3.2-37.3L90,177.6C84.33,200.7,81.93,210.7,81.13,215.2ZM35.83,112l-9.6-30.8,22.4,4.3L43,113.4Zm5.8,45.4,2-10,25.9-5.5-2.9,14h0l-1.9,8.6-24-3.1.9-4-3.7-.7Zm-12.7,12.4,33.5,4.3-3.1,36.8-30.4-6C29,189.1,28.93,176.5,28.93,169.8Zm30,46-3.6,42-9.9-4.7.9-39.7ZM39.4,302.7,29,299.6V253.3l11.4,5.4Zm1.2-51.9L29,245.3V210l12.6,2.5Zm3.63,53.3,1-43,31.3,14.8-14.4,33.4Zm46.5,33.7-26.9-8,5.7-13.2,25.7,7.6Zm6-18.3-25.2-7.4L77,299.3l23.8,7.7Zm25.7-15.8-41.5-13.4,5.5-12.8,38.9,14Zm14.5,4.7-9.9-3.2,2.9-12,10.4,3.7Zm29.8-9.8h0l-5.2,17.7-19.9-6.4,8.3-28.6,19,7.5h0l.6.2Zm4.9-16.5h0L135.83,268l5.6-20.6,28.7.9.2-7.3-6.4-.2c-2.2-14.9-6.4-42.7-8.2-54.6l13.8,1.8,1.2-9.6-14.9-1.9,3.6-19.2-4.8-.9-3.7,19.5-22.1-2.9,2.9-15.5-7.2-1.3-3,15.9-19-2.5,2.1-12.3-4.8-.8-1.9,12.4L72,165.5l1.7-8.1-3.8-.8,3.8.8,3.6-17.1,26.5-5.6c-1.2,6.9-2.5,14.1-3.8,21.6l4.8.8c1.4-8.3,2.8-16.1,4.1-23.5l20.6-4.3-4.9,26.8,7.2,1.3L137,129l22.1,4-4.4,23.3,4.8.9,4.4-23.4,5.8,1.1.4-2.4-.4,2.4,4.6.8,1.8,21.2,4.8-.4-1.7-19.9,19.7,3.5L196,155.8h0l-4.7,25.1-8.4-1.1-2-23.3-4.8.4,1.9,22.3-7.3-.9-1.2,9.6,20.1,2.5-9.5,50.8-9.8-.3-.2,7.3,3.8.1,18.3,41.9Zm7.7-33.5,22.8.7-8,33.1ZM216,286.2h0l-4,12-13.4-5.3-1.4-3.1,9.8-40.3,20.9.6Zm23.5,19.5-18.1-20.5,2.4-7.1,26.1.9C248.13,283.8,244.23,293.7,239.53,305.7Zm21.9-31.5-7-.2h-.1l-28.9-1,7.6-23.1,25.3.8Zm-4-30.6-23.6-.7-2.9-31,22.6,1.4Zm-4.6-35.1-22.4-1.4-1.1-11.6,22.2,2.8Zm-5.4-51.3h0l4,31.2-27.7-3.5,4.2-27.9-4.8-.7-4.2,28L201,182.1l4.6-24.5-3.6-.7,3.6.7,2.9-15.8,16.3,2.9L223,156.4l4.8.7,1.7-11.5,16.6,3ZM243,122.8l2.7,20.7-36.2-6.4,3.7-20Zm4.5-87.6L235.73,90l-17-3.3,10.6-57.1Zm-39.4-12.1L220,26.8l-13.4,72.8-25.5-43.1ZM159,8.6l10.2,2.5,31.4,9.7-23.5,29-3.8-6.4-15.7-26.9Zm-3.4,18.8L167.13,47l3.1-1.8-3.1,1.9,13,22-9.4-2-21.5-4.6Zm-7.3,39.8,21.4,4.6,13.7,3,17.8,30.1-30.1-5.8h0l-27.7-5.3Zm-2.7-25.7-5.7,31-19.7-4c2.8-16.3,4.6-26.8,5.3-31.5Zm-45.5-10.2,20.7,4.7c-1,5.9-4,23.9-8.8,51.8l-22.8-4.4ZM70.23,15.7c7.6.6,19.2,1.7,25.3,2.3l-6,28.6L65,41.5ZM74.73,51l-5.9,28.4-11-2.1,5.8-28.6ZM62.83,15.4l-5,24.7-21.1-4.4C40.33,18.8,53.93,15.6,62.83,15.4Z" transform="translate(-19)"/><path class="cls-4" d="M264,44.9v0Z" transform="translate(-19)"/><rect class="cls-5" x="16.5" y="16.5" width="213" height="40"/><circle class="cls-6" cx="33.63" cy="34.9" r="7"/><line class="cls-6" x1="38.63" y1="39.9" x2="43.23" y2="44.5"/><circle class="cls-7" cx="63.53" cy="273.6" r="10.4"/><polyline class="cls-8" points="63.53 273.6 105.13 176.8 176.43 186.6 190.33 110.9"/><polyline class="cls-9" points="143.93 182.1 176.43 186.6 190.33 110.9"/><polygon class="cls-10" points="145.23 192.6 119.33 178.9 148.03 172.8 143.63 182.3 145.23 192.6"/><circle class="cls-10" cx="190.33" cy="110.9" r="10.4"/><path class="cls-7" d="M264,1V343H21V1H264m1-1H19V345H265V0Z" transform="translate(-19)"/></g></g></g></g></svg>