<svg xmlns="http://www.w3.org/2000/svg" viewBox="0 0 395.14 419.5"><defs><style>.cls-1,.cls-26{fill:#fff;}.cls-2{fill:#ed1e79;}.cls-2,.cls-24,.cls-25,.cls-3{opacity:0.33;}.cls-3{fill:#ff0;}.cls-4{font-size:14.19px;}.cls-27,.cls-4,.cls-8{font-family:MyriadPro-Regular, Myriad Pro;}.cls-5{letter-spacing:0.02em;}.cls-6{letter-spacing:-0.07em;}.cls-7{letter-spacing:-0.08em;}.cls-8{font-size:9.47px;}.cls-9{letter-spacing:-0.01em;}.cls-10{letter-spacing:-0.01em;}.cls-11{letter-spacing:-0.01em;}.cls-12{letter-spacing:-0.01em;}.cls-13{letter-spacing:0em;}.cls-14{letter-spacing:0.02em;}.cls-15{letter-spacing:-0.03em;}.cls-16{letter-spacing:0em;}.cls-17{letter-spacing:0em;}.cls-18{letter-spacing:0em;}.cls-19{letter-spacing:-0.01em;}.cls-20{letter-spacing:-0.01em;}.cls-21{letter-spacing:0em;}.cls-22{letter-spacing:0.01em;}.cls-23{fill:none;stroke-linecap:round;}.cls-23,.cls-26{stroke:#000;stroke-miterlimit:10;}.cls-24{fill:#0071bc;}.cls-25{fill:#f15a24;}.cls-27{font-size:14.2px;}.cls-28{letter-spacing:-0.01em;}.cls-29{letter-spacing:0em;}.cls-30{letter-spacing:-0.03em;}.cls-31{letter-spacing:0em;}.cls-32{letter-spacing:-0.01em;}.cls-33{letter-spacing:-0.01em;}.cls-34{letter-spacing:0em;}.cls-35{letter-spacing:0em;}.cls-36{letter-spacing:0.01em;}.cls-37{letter-spacing:0.02em;}.cls-38{letter-spacing:-0.02em;}.cls-39{letter-spacing:0.01em;}.cls-40{letter-spacing:0em;}.cls-41{letter-spacing:-0.01em;}.cls-42{letter-spacing:0.03em;}.cls-43{letter-spacing:-0.07em;}.cls-44{letter-spacing:-0.01em;}.cls-45{letter-spacing:-0.01em;}.cls-46{letter-spacing:-0.08em;}.cls-47{letter-spacing:0.01em;}.cls-48{letter-spacing:0em;}.cls-49{letter-spacing:0em;}</style></defs><title>contextual-inquiry</title><g id="Layer_2" data-name="Layer 2"><g id="Layer_1-2" data-name="Layer 1"><rect class="cls-1" x="1" y="0.5" width="393.54" height="383.68"/><path d="M394,1V383.68H1.5V1H394m1-1H.5V384.68H395V0Z"/><rect class="cls-2" x="0.5" y="190.76" width="199.64" height="193.91"/><rect class="cls-3" x="200.93" y="190.76" width="193.32" height="193.91"/><text class="cls-4" transform="translate(277.73 278)">FOCUS</text><text class="cls-4" transform="translate(55.21 278)">INTERPR<tspan class="cls-5" x="49.58" y="0">E</tspan><tspan class="cls-6" x="56.78" y="0">T</tspan><tspan class="cls-7" x="62.77" y="0">A</tspan><tspan x="70.36" y="0">TION</tspan></text><text class="cls-8" transform="translate(236.7 291.13)"><tspan class="cls-9">A</tspan><tspan class="cls-10" x="5.68" y="0">g</tspan><tspan class="cls-11" x="10.92" y="0">r</tspan><tspan x="13.92" y="0">ee the </tspan><tspan class="cls-12" x="40.56" y="0">f</tspan><tspan class="cls-13" x="43.2" y="0">ocus be</tspan><tspan class="cls-12" x="73.74" y="0">f</tspan><tspan x="76.38" y="0">o</tspan><tspan class="cls-11" x="81.58" y="0">r</tspan><tspan class="cls-13" x="84.59" y="0">e sta</tspan><tspan class="cls-14" x="102.78" y="0">r</tspan><tspan x="106.11" y="0">ting</tspan></text><text class="cls-8" transform="translate(38.64 291.13)"><tspan class="cls-15">V</tspan><tspan x="4.97" y="0">e</tspan><tspan class="cls-16" x="9.72" y="0">r</tspan><tspan class="cls-17" x="12.85" y="0">ify th</tspan><tspan class="cls-18" x="32.69" y="0">a</tspan><tspan x="37.21" y="0">t assumptions a</tspan><tspan class="cls-19" x="99.04" y="0">r</tspan><tspan class="cls-17" x="102.04" y="0">e </tspan><tspan class="cls-20" x="108.8" y="0">c</tspan><tspan x="112.98" y="0">o</tspan><tspan class="cls-21" x="118.18" y="0">r</tspan><tspan class="cls-11" x="121.31" y="0">r</tspan><tspan x="124.32" y="0">e</tspan><tspan class="cls-22" x="129.06" y="0">c</tspan><tspan x="133.42" y="0">t</tspan></text><line class="cls-23" x1="200.53" y1="1.18" x2="200.53" y2="385.07"/><line class="cls-23" x1="394.64" y1="190.37" x2="0.89" y2="190.37"/><rect class="cls-24" x="1.29" width="198.85" height="189.97"/><rect class="cls-25" x="200.14" width="194.11" height="189.97"/><rect class="cls-26" x="0.5" y="385.07" width="393.75" height="33.93"/><text class="cls-27" transform="translate(82.56 407.16)"><tspan class="cls-28">T</tspan><tspan class="cls-29" x="6.96" y="0">he </tspan><tspan class="cls-30" x="24.97" y="0">F</tspan><tspan x="31.45" y="0">our Key </tspan><tspan class="cls-31" x="79.24" y="0">S</tspan><tspan class="cls-32" x="86.2" y="0">t</tspan><tspan x="90.82" y="0">eps in </tspan><tspan class="cls-33" x="128.87" y="0">C</tspan><tspan x="136.95" y="0">o</tspan><tspan class="cls-34" x="144.75" y="0">n</tspan><tspan class="cls-32" x="152.57" y="0">t</tspan><tspan class="cls-35" x="157.19" y="0">e</tspan><tspan x="164.26" y="0">xual </tspan><tspan class="cls-36" x="191.87" y="0">I</tspan><tspan x="195.41" y="0">nqui</tspan><tspan class="cls-37" x="222.44" y="0">r</tspan><tspan x="227.44" y="0">y</tspan></text><text class="cls-4" transform="translate(70.99 97.48)"><tspan class="cls-38">C</tspan><tspan x="7.93" y="0">ONTE</tspan><tspan class="cls-39" x="41.08" y="0">X</tspan><tspan x="49.29" y="0">T</tspan></text><text class="cls-8" transform="translate(31.54 109.83)"><tspan class="cls-40">G</tspan><tspan x="6.16" y="0">o </tspan><tspan class="cls-41" x="13.37" y="0">t</tspan><tspan class="cls-17" x="16.45" y="0">o the use</tspan><tspan class="cls-42" x="52.5" y="0">r</tspan><tspan class="cls-43" x="55.88" y="0">’</tspan><tspan x="57.16" y="0">s n</tspan><tspan class="cls-18" x="68.17" y="0">a</tspan><tspan class="cls-17" x="72.7" y="0">tu</tspan><tspan class="cls-44" x="81.05" y="0">r</tspan><tspan x="84.1" y="0">al e</tspan><tspan class="cls-45" x="97.65" y="0">n</tspan><tspan x="102.78" y="0">vi</tspan><tspan class="cls-19" x="109.55" y="0">r</tspan><tspan x="112.56" y="0">onme</tspan><tspan class="cls-18" x="135.65" y="0">n</tspan><tspan x="140.87" y="0">t</tspan></text><text class="cls-4" transform="translate(259.58 97.48)"><tspan class="cls-46">P</tspan><tspan x="6.36" y="0">A</tspan><tspan class="cls-47" x="15.04" y="0">R</tspan><tspan class="cls-48" x="22.8" y="0">TNERSHIP</tspan></text><text class="cls-8" transform="translate(225.65 109.83)"><tspan class="cls-9">A</tspan><tspan x="5.68" y="0">dopt a mas</tspan><tspan class="cls-10" x="49.53" y="0">t</tspan><tspan x="52.61" y="0">e</tspan><tspan class="cls-49" x="57.35" y="0">r</tspan><tspan class="cls-13" x="60.4" y="0">-app</tspan><tspan class="cls-11" x="78.65" y="0">r</tspan><tspan class="cls-13" x="81.65" y="0">e</tspan><tspan class="cls-18" x="86.39" y="0">n</tspan><tspan x="91.61" y="0">ti</tspan><tspan class="cls-41" x="96.96" y="0">c</tspan><tspan x="101.15" y="0">e </tspan><tspan class="cls-11" x="107.9" y="0">r</tspan><tspan x="110.9" y="0">el</tspan><tspan class="cls-18" x="117.88" y="0">a</tspan><tspan x="122.4" y="0">tionship</tspan></text></g></g></svg>