<svg xmlns="http://www.w3.org/2000/svg" viewBox="0 0 286 275"><defs><style>.cls-1{opacity:0.5;}.cls-2{fill:#fc3;}.cls-3{fill:#ccc;}.cls-4{fill:#4dd0e1;}.cls-5{fill:#ff7bac;}.cls-6{font-size:12px;fill:#383838;font-family:MyriadPro-Regular, Myriad Pro;}.cls-7{letter-spacing:-0.04em;}.cls-8{letter-spacing:-0.01em;}.cls-9{letter-spacing:0em;}.cls-10{letter-spacing:-0.04em;}.cls-11{letter-spacing:-0.06em;}.cls-12{letter-spacing:0em;}.cls-13{letter-spacing:-0.04em;}.cls-14{letter-spacing:-0.08em;}</style></defs><title>Asset 1</title><g id="Layer_2" data-name="Layer 2"><g id="Layer_1-2" data-name="Layer 1"><g class="cls-1"><circle class="cls-2" cx="94" cy="97" r="93.5"/><path class="cls-3" d="M94,4A93,93,0,1,1,1,97,93.11,93.11,0,0,1,94,4m0-1a94,94,0,1,0,94,94A94,94,0,0,0,94,3Z"/></g><g class="cls-1"><circle class="cls-4" cx="192" cy="94" r="93.5"/><path class="cls-3" d="M192,1A93,93,0,1,1,99,94,93.11,93.11,0,0,1,192,1m0-1a94,94,0,1,0,94,94A94,94,0,0,0,192,0Z"/></g><g class="cls-1"><circle class="cls-5" cx="137" cy="181" r="93.5"/><path class="cls-3" d="M137,88a93,93,0,1,1-93,93,93.11,93.11,0,0,1,93-93m0-1a94,94,0,1,0,94,94,94,94,0,0,0-94-94Z"/></g><text class="cls-6" transform="translate(202.55 90.09)">BUSINESS</text><text class="cls-6" transform="translate(17.55 89.09)">TECHNO<tspan class="cls-7" x="42.82" y="0">L</tspan><tspan x="48.01" y="0">OGY</tspan></text><text class="cls-6" transform="translate(98.55 215.09)">HU<tspan class="cls-8" x="15.59" y="0">M</tspan><tspan class="cls-9" x="25.12" y="0">AN</tspan><tspan class="cls-10" x="40.36" y="0"> </tspan><tspan class="cls-11" x="42.47" y="0">V</tspan><tspan class="cls-12" x="48.48" y="0">A</tspan><tspan class="cls-13" x="55.82" y="0">L</tspan><tspan class="cls-12" x="61.06" y="0">UES</tspan></text><text class="cls-6" transform="translate(124.4 112.96)">DESIGN <tspan x="-11.74" y="14.4">INNO</tspan><tspan class="cls-11" x="15.19" y="14.4">V</tspan><tspan class="cls-14" x="21.2" y="14.4">A</tspan><tspan x="27.62" y="14.4">TION</tspan></text></g></g></svg>