<svg xmlns="http://www.w3.org/2000/svg" viewBox="0 0 750.5 751"><defs><style>.cls-1{fill:#fff;stroke:#e6e6e6;}.cls-1,.cls-2{stroke-miterlimit:10;}.cls-2{fill:none;stroke:#666;stroke-width:3px;}.cls-10,.cls-3,.cls-46,.cls-72{font-size:12px;}.cls-3{font-family:MyriadPro-Bold, Myriad Pro;font-weight:700;}.cls-4{letter-spacing:0em;}.cls-5{letter-spacing:-0.01em;}.cls-6{letter-spacing:-0.01em;}.cls-7{letter-spacing:-0.01em;}.cls-8{letter-spacing:0em;}.cls-9{letter-spacing:0.01em;}.cls-10,.cls-17,.cls-35,.cls-46,.cls-56,.cls-69,.cls-72,.cls-76{font-family:MyriadPro-Regular, Myriad Pro;}.cls-11{letter-spacing:-0.08em;}.cls-12{letter-spacing:0em;}.cls-13{letter-spacing:-0.02em;}.cls-14{letter-spacing:-0.01em;}.cls-15{letter-spacing:0em;}.cls-16{fill:#666;}.cls-17{font-size:12.03px;fill:#4d4d4d;}.cls-18{letter-spacing:0em;}.cls-19{letter-spacing:-0.01em;}.cls-20{letter-spacing:0em;}.cls-21{letter-spacing:0em;}.cls-22,.cls-23{fill:#ff0;}.cls-22{opacity:0.39;}.cls-23,.cls-52{opacity:0.4;}.cls-24{fill:#ed1c24;}.cls-24,.cls-25,.cls-26,.cls-27,.cls-28{opacity:0.6;}.cls-25{fill:#f7931e;}.cls-26{fill:#8cc63f;}.cls-27{fill:#0071bc;}.cls-28,.cls-52{fill:#ff7bac;}.cls-29{letter-spacing:0.01em;}.cls-30{letter-spacing:0.01em;}.cls-31{letter-spacing:0em;}.cls-32{letter-spacing:0em;}.cls-33{letter-spacing:-0.01em;}.cls-34{letter-spacing:0em;}.cls-35{font-size:11.58px;}.cls-36{letter-spacing:-0.02em;}.cls-37{letter-spacing:0em;}.cls-38{letter-spacing:0.01em;}.cls-39{letter-spacing:-0.04em;}.cls-40{letter-spacing:-0.06em;}.cls-41{letter-spacing:-0.01em;}.cls-42{letter-spacing:-0.01em;}.cls-43{letter-spacing:-0.01em;}.cls-44{letter-spacing:0.01em;}.cls-45{letter-spacing:0em;}.cls-46{fill:#1a1a1a;}.cls-47{letter-spacing:-0.02em;}.cls-48{letter-spacing:-0.01em;}.cls-49{letter-spacing:-0.01em;}.cls-50{letter-spacing:0.02em;}.cls-51{letter-spacing:-0.08em;}.cls-53{letter-spacing:-0.03em;}.cls-54{letter-spacing:0em;}.cls-55{letter-spacing:-0.03em;}.cls-56{font-size:11.88px;}.cls-57{letter-spacing:-0.01em;}.cls-58{letter-spacing:-0.02em;}.cls-59{letter-spacing:0em;}.cls-60{letter-spacing:-0.01em;}.cls-61{letter-spacing:0em;}.cls-62{letter-spacing:0em;}.cls-63{letter-spacing:0em;}.cls-64{letter-spacing:0.01em;}.cls-65{letter-spacing:-0.05em;}.cls-66{letter-spacing:-0.01em;}.cls-67{letter-spacing:-0.01em;}.cls-68{letter-spacing:0em;}.cls-69{font-size:13.3px;}.cls-70{letter-spacing:-0.01em;}.cls-71{letter-spacing:0em;}.cls-72{fill:gray;}.cls-73{letter-spacing:0em;}.cls-74{letter-spacing:0.02em;}.cls-75{letter-spacing:-0.04em;}.cls-76{font-size:10px;}.cls-77{letter-spacing:0.01em;}.cls-78{letter-spacing:-0.01em;}.cls-79{letter-spacing:-0.01em;}.cls-80{letter-spacing:0em;}.cls-81{letter-spacing:0em;}.cls-82{letter-spacing:0em;}.cls-83{letter-spacing:0.01em;}.cls-84{letter-spacing:0em;}.cls-85{letter-spacing:0em;}.cls-86{letter-spacing:0em;}.cls-87{letter-spacing:-0.03em;}.cls-88{letter-spacing:-0.02em;}.cls-89{letter-spacing:0.01em;}.cls-90{letter-spacing:-0.01em;}.cls-91{letter-spacing:0em;}</style></defs><title>ecosystem_1</title><g id="Layer_2" data-name="Layer 2"><g id="Layer_1-2" data-name="Layer 1"><rect class="cls-1" x="0.5" y="0.5" width="749.5" height="750"/><path class="cls-2" d="M93.74,476.46A309.07,309.07,0,1,1,687,311.77,309,309,0,0,1,187.66,607"/><circle class="cls-2" cx="376.5" cy="363" r="86"/><text class="cls-3" transform="translate(325.5 310)"><tspan class="cls-4">I</tspan><tspan class="cls-5" x="3.46" y="0">n</tspan><tspan class="cls-6" x="10.42" y="0">t</tspan><tspan x="14.76" y="0">erior Ex</tspan><tspan class="cls-4" x="55.49" y="0">p</tspan><tspan x="62.7" y="0">erien</tspan><tspan class="cls-7" x="90.25" y="0">c</tspan><tspan class="cls-8" x="95.53" y="0">e</tspan></text><text class="cls-3" transform="translate(329.5 85)">E<tspan class="cls-9" x="6.41" y="0">x</tspan><tspan class="cls-6" x="12.79" y="0">t</tspan><tspan x="17.14" y="0">erior Ex</tspan><tspan class="cls-4" x="57.86" y="0">p</tspan><tspan x="65.08" y="0">erien</tspan><tspan class="cls-7" x="92.63" y="0">c</tspan><tspan x="97.91" y="0">e</tspan></text><text class="cls-10" transform="translate(280.94 38.77)">SEP<tspan class="cls-11" x="18.2" y="0">T</tspan><tspan x="23.27" y="0">A REGIONAL </tspan><tspan class="cls-12" x="87.85" y="0">R</tspan><tspan class="cls-8" x="94.37" y="0">AIL USER E</tspan><tspan class="cls-13" x="147.27" y="0">C</tspan><tspan class="cls-8" x="153.98" y="0">OS</tspan><tspan class="cls-14" x="168.17" y="0">Y</tspan><tspan class="cls-15" x="174.5" y="0">STEM</tspan></text><polygon class="cls-16" points="193.82 603.16 188.07 608.27 182.32 613.39 180.77 605.84 179.22 598.28 186.52 600.72 193.82 603.16"/><text class="cls-17" transform="translate(31.5 500.12)"><tspan class="cls-18">D</tspan><tspan x="8.06" y="0">ecide </tspan><tspan class="cls-19" x="37.66" y="0">t</tspan><tspan x="41.56" y="0">o take the t</tspan><tspan class="cls-20" x="97.94" y="0">r</tspan><tspan class="cls-21" x="101.81" y="0">ain</tspan></text><circle class="cls-22" cx="471" cy="190.5" r="50"/><ellipse class="cls-23" cx="446.5" cy="248.5" rx="39.5" ry="39"/><circle class="cls-23" cx="534" cy="300.5" r="32"/><circle class="cls-23" cx="417" cy="159.5" r="32"/><circle class="cls-23" cx="538" cy="165.5" r="32"/><circle class="cls-23" cx="570.5" cy="213" r="37.5"/><circle class="cls-23" cx="514.5" cy="244" r="30.5"/><circle class="cls-24" cx="160.5" cy="378" r="49.5"/><circle class="cls-24" cx="169" cy="303.5" r="47"/><circle class="cls-24" cx="211" cy="236.5" r="44"/><circle class="cls-24" cx="222" cy="332.5" r="33"/><circle class="cls-24" cx="236.5" cy="401" r="45.5"/><circle class="cls-25" cx="280.5" cy="197" r="48.5"/><circle class="cls-25" cx="268.5" cy="139" r="35.5"/><circle class="cls-25" cx="317.5" cy="236" r="26.5"/><circle class="cls-25" cx="337" cy="163.5" r="37"/><circle class="cls-26" cx="568" cy="355.5" r="41"/><circle class="cls-26" cx="609" cy="414.5" r="33"/><circle class="cls-26" cx="609" cy="453.5" r="33"/><circle class="cls-26" cx="574" cy="476.5" r="27"/><circle class="cls-26" cx="512.5" cy="453" r="42.5"/><ellipse class="cls-26" cx="618.06" cy="326.51" rx="38" ry="39"/><circle class="cls-26" cx="507" cy="377.5" r="33"/><circle class="cls-27" cx="471" cy="579.5" r="47"/><circle class="cls-27" cx="416" cy="547.5" r="33"/><circle class="cls-27" cx="447" cy="508.5" r="33"/><circle class="cls-27" cx="367" cy="573.5" r="33"/><circle class="cls-27" cx="524" cy="516.5" r="44"/><ellipse class="cls-28" cx="303.5" cy="545.16" rx="63.5" ry="63.66"/><text class="cls-10" transform="translate(131.24 365.5)"><tspan class="cls-29">S</tspan><tspan x="5.99" y="0">ele</tspan><tspan class="cls-30" x="20.84" y="0">c</tspan><tspan class="cls-8" x="26.38" y="0">t t</tspan><tspan class="cls-31" x="36.86" y="0">r</tspan><tspan class="cls-15" x="40.73" y="0">ain </tspan><tspan x="-10.99" y="14.4">based on o</tspan><tspan class="cls-32" x="44.08" y="14.4">r</tspan><tspan x="48.05" y="14.4">i</tspan><tspan class="cls-33" x="50.86" y="14.4">g</tspan><tspan x="57.5" y="14.4">in </tspan><tspan x="-8" y="28.8">and desin</tspan><tspan class="cls-34" x="40.76" y="28.8">a</tspan><tspan x="46.49" y="28.8">tion</tspan></text><text class="cls-35" transform="translate(180.35 235.8)"><tspan class="cls-36">V</tspan><tspan x="6.28" y="0">isit </tspan><tspan class="cls-37" x="22.58" y="0">G</tspan><tspan x="30.12" y="0">oogle </tspan><tspan class="cls-38" x="15.85" y="13.9">M</tspan><tspan x="25.23" y="13.9">aps </tspan></text><text class="cls-10" transform="translate(245.74 138.5)"><tspan class="cls-5">U</tspan><tspan x="7.69" y="0">se Uber</tspan><tspan x="6.81" y="14.4">or</tspan><tspan class="cls-39" x="17.32" y="14.4"> </tspan><tspan class="cls-40" x="19.37" y="14.4">T</tspan><tspan x="24.57" y="14.4">axi</tspan></text><text class="cls-10" transform="translate(319.2 163.5)"><tspan class="cls-33">A</tspan><tspan x="7.27" y="0">sk </tspan><tspan class="cls-41" x="20.2" y="0">f</tspan><tspan x="23.54" y="0">or </tspan><tspan x="-6.55" y="14.4">di</tspan><tspan class="cls-42" x="3.02" y="14.4">r</tspan><tspan x="6.83" y="14.4">e</tspan><tspan class="cls-9" x="12.84" y="14.4">c</tspan><tspan x="18.37" y="14.4">tions</tspan></text><text class="cls-10" transform="translate(307.07 232.5)"><tspan class="cls-43">C</tspan><tspan x="6.88" y="0">all </tspan><tspan class="cls-29" x="-3.86" y="14.4">S</tspan><tspan x="2.13" y="14.4">epta</tspan></text><text class="cls-10" transform="translate(196.71 332.5)"><tspan class="cls-33">U</tspan><tspan x="7.69" y="0">se </tspan><tspan class="cls-44" x="21" y="0">S</tspan><tspan x="26.99" y="0">epta</tspan><tspan x="13.04" y="14.4"> </tspan><tspan class="cls-45" x="15.58" y="14.4">A</tspan><tspan x="22.89" y="14.4">pp</tspan></text><text class="cls-46" transform="translate(135.62 299)"><tspan class="cls-29">S</tspan><tspan x="5.99" y="0">ele</tspan><tspan class="cls-30" x="20.84" y="0">c</tspan><tspan class="cls-8" x="26.38" y="0">t st</tspan><tspan class="cls-34" x="41.62" y="0">a</tspan><tspan x="47.35" y="0">tion</tspan><tspan x="-13.12" y="14.4" xml:space="preserve"> based on o</tspan><tspan class="cls-32" x="44.5" y="14.4">r</tspan><tspan x="48.47" y="14.4">i</tspan><tspan class="cls-5" x="51.28" y="14.4">g</tspan><tspan class="cls-8" x="57.91" y="14.4">in</tspan></text><text class="cls-10" transform="translate(200.11 397.21)"><tspan class="cls-47">V<tspan class="cls-8" x="6.5" y="0">iew schedule</tspan></tspan><tspan x="-3.52" y="14.4" xml:space="preserve"> and sele</tspan><tspan class="cls-9" x="40.39" y="14.4">c</tspan><tspan x="45.92" y="14.4">t time</tspan></text><text class="cls-10" transform="translate(248.54 201)"><tspan class="cls-12">G</tspan><tspan x="7.81" y="0">o </tspan><tspan class="cls-33" x="16.94" y="0">t</tspan><tspan x="20.84" y="0">o st</tspan><tspan class="cls-34" x="38.7" y="0">a</tspan><tspan x="44.44" y="0">tion</tspan></text><text class="cls-10" transform="translate(431.49 195)"><tspan class="cls-48">P</tspan><tspan class="cls-15" x="6.2" y="0">u</tspan><tspan class="cls-49" x="12.82" y="0">r</tspan><tspan x="16.62" y="0">chase ticket</tspan></text><text class="cls-10" transform="translate(406.58 153)"><tspan class="cls-47">V<tspan class="cls-8" x="6.5" y="0">isit</tspan></tspan><tspan x="-17.54" y="14.4">ticket </tspan><tspan class="cls-50" x="12.77" y="14.4">k</tspan><tspan x="18.61" y="14.4">iosk</tspan></text><text class="cls-10" transform="translate(523.58 300)"><tspan class="cls-47">V<tspan class="cls-8" x="6.5" y="0">isit</tspan></tspan><tspan class="cls-51" x="-0.59" y="14.4">A</tspan><tspan x="5.83" y="14.4">TM</tspan></text><circle class="cls-52" cx="225" cy="547.5" r="32"/><text class="cls-10" transform="translate(214.58 547)"><tspan class="cls-47">V<tspan class="cls-8" x="6.5" y="0">isit</tspan></tspan><tspan class="cls-51" x="-0.59" y="14.4">A</tspan><tspan x="5.83" y="14.4">TM</tspan></text><text class="cls-10" transform="translate(432.28 242)"><tspan class="cls-12">G</tspan><tspan x="7.81" y="0">o </tspan><tspan class="cls-33" x="16.94" y="0">t</tspan><tspan x="20.84" y="0">o</tspan><tspan x="-16.76" y="14.4">ticket booth</tspan></text><text class="cls-10" transform="translate(534.91 358)"><tspan class="cls-53">F</tspan><tspan x="5.53" y="0">ind </tspan><tspan class="cls-31" x="24.31" y="0">P</tspan><tspan x="30.64" y="0">l</tspan><tspan class="cls-34" x="33.47" y="0">a</tspan><tspan x="39.2" y="0">t</tspan><tspan class="cls-41" x="43.18" y="0">f</tspan><tspan x="46.52" y="0">o</tspan><tspan class="cls-54" x="53.11" y="0">r</tspan><tspan x="57.08" y="0">m</tspan></text><text class="cls-10" transform="translate(525.92 162)"><tspan class="cls-47">V<tspan class="cls-8" x="6.5" y="0">iew</tspan></tspan><tspan x="-10.76" y="14.4">b</tspan><tspan class="cls-42" x="-3.94" y="14.4">r</tspan><tspan x="-0.13" y="14.4">ochu</tspan><tspan class="cls-49" x="25.1" y="14.4">r</tspan><tspan x="28.91" y="14.4">e</tspan></text><text class="cls-10" transform="translate(596.92 409)"><tspan class="cls-47">V<tspan class="cls-8" x="6.5" y="0">iew</tspan></tspan><tspan x="-12.04" y="14.4">timetable</tspan></text><text class="cls-10" transform="translate(598.84 459)"><tspan class="cls-55">W</tspan><tspan x="9.76" y="0">ait</tspan></text><text class="cls-10" transform="translate(557.61 476)">Run or<tspan x="5.42" y="14.4">rush</tspan></text><text class="cls-10" transform="translate(479.51 453)"><tspan class="cls-32">R</tspan><tspan x="6.5" y="0">ea</tspan><tspan class="cls-49" x="18.3" y="0">d</tspan><tspan x="24.95" y="0">, </tspan><tspan class="cls-34" x="29.98" y="0">wa</tspan><tspan class="cls-33" x="44.5" y="0">t</tspan><tspan x="48.4" y="0">ch </tspan><tspan x="7.89" y="14.4">or peruse</tspan></text><text class="cls-56" transform="translate(496.9 369.45) scale(1.01 1)"><tspan class="cls-57">A</tspan><tspan x="7.2" y="0">sk </tspan><tspan x="-13.08" y="14.26">someone</tspan></text><text class="cls-10" transform="translate(607.91 316.01) scale(0.97 1)"><tspan class="cls-58">V<tspan class="cls-59" x="6.5" y="0">isit</tspan></tspan><tspan x="-19.15" y="14.4">in</tspan><tspan class="cls-60" x="-9.68" y="14.4">f</tspan><tspan class="cls-61" x="-6.34" y="14.4">o</tspan><tspan class="cls-62" x="0.25" y="14.4">r</tspan><tspan x="4.22" y="14.4">m</tspan><tspan class="cls-63" x="14.23" y="14.4">a</tspan><tspan x="19.97" y="14.4">tion</tspan><tspan x="-2.43" y="28.8" xml:space="preserve"> desk</tspan></text><text class="cls-10" transform="translate(561.77 210)"><tspan class="cls-33">U</tspan><tspan x="7.69" y="0">se</tspan><tspan x="-14.81" y="14.4"> </tspan><tspan class="cls-42" x="-12.26" y="14.4">r</tspan><tspan x="-8.46" y="14.4">est</tspan><tspan class="cls-42" x="6.28" y="14.4">r</tspan><tspan x="10.08" y="14.4">oom</tspan></text><circle class="cls-52" cx="317" cy="605.5" r="32"/><text class="cls-10" transform="translate(307.77 600)"><tspan class="cls-33">U</tspan><tspan x="7.69" y="0">se</tspan><tspan x="-14.81" y="14.4"> </tspan><tspan class="cls-42" x="-12.26" y="14.4">r</tspan><tspan x="-8.46" y="14.4">est</tspan><tspan class="cls-42" x="6.28" y="14.4">r</tspan><tspan x="10.08" y="14.4">oom</tspan></text><text class="cls-10" transform="translate(490.45 243)"><tspan class="cls-12">G</tspan><tspan x="7.81" y="0">et </tspan><tspan class="cls-5" x="20.34" y="0">c</tspan><tspan x="25.64" y="0">o</tspan><tspan class="cls-41" x="32.23" y="0">ff</tspan><tspan x="39.07" y="0">ee</tspan><tspan x="6.1" y="14.4" xml:space="preserve"> or </tspan><tspan class="cls-41" x="21.7" y="14.4">f</tspan><tspan class="cls-8" x="25.05" y="14.4">ood</tspan></text><circle class="cls-52" cx="296.5" cy="483" r="33.5"/><text class="cls-10" transform="translate(269.45 483)"><tspan class="cls-12">G</tspan><tspan x="7.81" y="0">et </tspan><tspan class="cls-5" x="20.34" y="0">c</tspan><tspan x="25.64" y="0">o</tspan><tspan class="cls-41" x="32.23" y="0">ff</tspan><tspan x="39.07" y="0">ee</tspan><tspan x="6.1" y="14.4" xml:space="preserve"> or </tspan><tspan class="cls-41" x="21.7" y="14.4">f</tspan><tspan class="cls-8" x="25.05" y="14.4">ood</tspan></text><text class="cls-10" transform="translate(447.24 584)"><tspan class="cls-64">R</tspan><tspan x="6.58" y="0">ide</tspan><tspan class="cls-39" x="22.16" y="0"> </tspan><tspan class="cls-65" x="24.22" y="0">T</tspan><tspan class="cls-31" x="29.64" y="0">r</tspan><tspan x="33.5" y="0">ain</tspan></text><text class="cls-10" transform="translate(431.4 512)">Sleep</text><text class="cls-10" transform="translate(350.3 574)"><tspan class="cls-66">L</tspan><tspan x="5.5" y="0">e</tspan><tspan class="cls-67" x="11.51" y="0">a</tspan><tspan class="cls-42" x="17.2" y="0">v</tspan><tspan x="22.85" y="0">e </tspan><tspan class="cls-65" x="3.43" y="14.4">T</tspan><tspan class="cls-31" x="8.86" y="14.4">r</tspan><tspan x="12.72" y="14.4">ain</tspan></text><text class="cls-10" transform="translate(395.31 545)"><tspan class="cls-43">T</tspan><tspan x="5.88" y="0">hink or</tspan><tspan x="8.32" y="14.4">d</tspan><tspan class="cls-49" x="15.08" y="14.4">r</tspan><tspan x="18.89" y="14.4">eam</tspan></text><text class="cls-10" transform="translate(500.48 508)">Check <tspan class="cls-41" x="33.18" y="0">f</tspan><tspan x="36.53" y="0">or</tspan><tspan x="1.61" y="14.4">s</tspan><tspan class="cls-33" x="6.36" y="14.4">t</tspan><tspan x="10.26" y="14.4">op and</tspan><tspan x="-5.62" y="28.8" xml:space="preserve"> o</tspan><tspan class="cls-32" x="3.52" y="28.8">r</tspan><tspan class="cls-8" x="7.49" y="28.8">ie</tspan><tspan class="cls-68" x="16.31" y="28.8">n</tspan><tspan class="cls-8" x="22.92" y="28.8">t</tspan><tspan class="cls-68" x="26.89" y="28.8">a</tspan><tspan class="cls-8" x="32.63" y="28.8">tion</tspan></text><text class="cls-10" transform="translate(246.88 539)"><tspan class="cls-32">D</tspan><tspan x="8.04" y="0">e</tspan><tspan class="cls-5" x="14.05" y="0">t</tspan><tspan class="cls-8" x="17.95" y="0">e</tspan><tspan class="cls-32" x="23.96" y="0">r</tspan><tspan x="27.94" y="0">mine o</tspan><tspan class="cls-54" x="62.55" y="0">r</tspan><tspan x="66.53" y="0">ie</tspan><tspan class="cls-34" x="75.35" y="0">n</tspan><tspan x="81.96" y="0">t</tspan><tspan class="cls-34" x="85.93" y="0">a</tspan><tspan x="91.67" y="0">tion </tspan><tspan x="23.77" y="14.4">and di</tspan><tspan class="cls-42" x="55.1" y="14.4">r</tspan><tspan x="58.9" y="14.4">e</tspan><tspan class="cls-9" x="64.91" y="14.4">c</tspan><tspan x="70.45" y="14.4">tion</tspan><tspan x="20.96" y="28.8"> </tspan><tspan class="cls-33" x="23.51" y="28.8">t</tspan><tspan x="27.41" y="28.8">o destin</tspan><tspan class="cls-34" x="67.51" y="28.8">a</tspan><tspan x="73.25" y="28.8">tion</tspan></text><ellipse class="cls-28" cx="232" cy="480.74" rx="41" ry="41.1"/><text class="cls-69" transform="translate(200.85 477.16)"><tspan class="cls-70">A</tspan><tspan x="8.06" y="0">sk f</tspan><tspan class="cls-71" x="26.26" y="0">r</tspan><tspan x="30.66" y="0">iends </tspan><tspan x="7.52" y="15.96">or family</tspan></text><text class="cls-72" transform="translate(250.16 287.83)"><tspan class="cls-29">S</tspan><tspan x="5.99" y="0">ocial </tspan><tspan class="cls-29" x="31.92" y="0">M</tspan><tspan x="41.64" y="0">edia</tspan></text><text class="cls-72" transform="translate(351.92 480.83)">Online <tspan class="cls-73" x="35.78" y="0">A</tspan><tspan class="cls-15" x="43.09" y="0">pps</tspan></text><text class="cls-72" transform="translate(362.16 632.83)">E<tspan class="cls-68" x="5.9" y="0">n</tspan><tspan class="cls-33" x="12.52" y="0">t</tspan><tspan x="16.42" y="0">e</tspan><tspan class="cls-74" x="22.43" y="0">r</tspan><tspan x="26.64" y="0">tainme</tspan><tspan class="cls-34" x="61.88" y="0">n</tspan><tspan x="68.5" y="0">t </tspan><tspan class="cls-32" x="12.34" y="14.4">R</tspan><tspan x="18.84" y="14.4">esou</tspan><tspan class="cls-42" x="42.8" y="14.4">r</tspan><tspan class="cls-5" x="46.61" y="14.4">c</tspan><tspan class="cls-8" x="51.91" y="14.4">es</tspan></text><text class="cls-72" transform="translate(100.42 452.83)"><tspan class="cls-53">F</tspan><tspan class="cls-32" x="5.53" y="0">r</tspan><tspan class="cls-8" x="9.5" y="0">iends or </tspan><tspan class="cls-65" x="52.1" y="0">F</tspan><tspan x="57.41" y="0">amily</tspan></text><text class="cls-72" transform="translate(449.89 122.83)"><tspan class="cls-45">S</tspan><tspan x="5.88" y="0">t</tspan><tspan class="cls-31" x="9.85" y="0">r</tspan><tspan x="13.72" y="0">angers</tspan></text><text class="cls-72" transform="translate(572 268.83)"><tspan class="cls-29">S</tspan><tspan x="5.99" y="0">epta</tspan><tspan class="cls-75" x="28.58" y="0"> </tspan><tspan class="cls-55" x="30.7" y="0">W</tspan><tspan x="40.45" y="0">o</tspan><tspan class="cls-54" x="47.04" y="0">r</tspan><tspan x="51.01" y="0">kers</tspan></text><text class="cls-72" transform="translate(157.31 175.83)"><tspan class="cls-12">G</tspan><tspan x="7.81" y="0">oogle </tspan><tspan class="cls-29" x="39.08" y="0">S</tspan><tspan x="45.07" y="0">ea</tspan><tspan class="cls-42" x="56.87" y="0">r</tspan><tspan x="60.67" y="0">ch</tspan></text><text class="cls-76" transform="translate(384.29 332.83)"><tspan class="cls-77">M</tspan><tspan class="cls-78" x="8.1" y="0">o</tspan><tspan class="cls-79" x="13.52" y="0">v</tspan><tspan class="cls-80" x="18.23" y="0">eme</tspan><tspan class="cls-81" x="36.59" y="0">n</tspan><tspan x="42.1" y="0">t</tspan></text><text class="cls-76" transform="translate(328.13 332.83)"><tspan class="cls-82">A</tspan><tspan x="6.09" y="0">nxie</tspan><tspan class="cls-83" x="23.62" y="0">t</tspan><tspan x="27.02" y="0">y</tspan></text><text class="cls-76" transform="translate(358.98 350.83)"><tspan class="cls-84">Q</tspan><tspan x="6.92" y="0">uestions</tspan></text><text class="cls-76" transform="translate(314.3 371.83)">Diso<tspan class="cls-85" x="18.45" y="0">r</tspan><tspan x="21.76" y="0">ie</tspan><tspan class="cls-81" x="29.11" y="0">n</tspan><tspan class="cls-80" x="34.62" y="0">t</tspan><tspan class="cls-86" x="37.93" y="0">a</tspan><tspan class="cls-80" x="42.71" y="0">tion</tspan></text><text class="cls-76" transform="translate(411.84 371.83)"><tspan class="cls-73">S</tspan><tspan x="4.9" y="0">t</tspan><tspan class="cls-79" x="8.21" y="0">r</tspan><tspan x="11.38" y="0">ess</tspan></text><text class="cls-76" transform="translate(370.92 390.83)"><tspan class="cls-87">F</tspan><tspan x="4.61" y="0">ig</tspan><tspan class="cls-81" x="12.54" y="0">h</tspan><tspan class="cls-80" x="18.05" y="0">t or </tspan><tspan class="cls-88" x="34.36" y="0">F</tspan><tspan x="39.06" y="0">lig</tspan><tspan class="cls-81" x="49.35" y="0">h</tspan><tspan x="54.86" y="0">t</tspan></text><text class="cls-76" transform="translate(323.78 410.83)"><tspan class="cls-89">I</tspan><tspan class="cls-81" x="2.49" y="0">n</tspan><tspan class="cls-90" x="8" y="0">t</tspan><tspan x="11.25" y="0">e</tspan><tspan class="cls-91" x="16.26" y="0">r</tspan><tspan x="19.57" y="0">ior Engageme</tspan><tspan class="cls-81" x="77.62" y="0">n</tspan><tspan x="83.13" y="0">t</tspan></text></g></g></svg>