<svg xmlns="http://www.w3.org/2000/svg" viewBox="0 0 613.04 557"><defs><style>.cls-1,.cls-21{fill:#fff;}.cls-1{stroke:#e6e6e6;}.cls-1,.cls-10,.cls-11,.cls-12,.cls-13,.cls-8,.cls-9{stroke-miterlimit:10;}.cls-2{font-size:12px;font-family:MyriadPro-Regular, Myriad Pro;}.cls-3{letter-spacing:-0.08em;}.cls-4{letter-spacing:0em;}.cls-5{letter-spacing:0em;}.cls-6{letter-spacing:0.01em;}.cls-7{letter-spacing:0em;}.cls-10,.cls-12,.cls-13,.cls-8,.cls-9{fill:#ff1d25;}.cls-10,.cls-11,.cls-12,.cls-13,.cls-8,.cls-9{stroke:#666;}.cls-8{opacity:0.3;}.cls-9{opacity:0.6;}.cls-11{fill:red;}.cls-12{opacity:0.15;}.cls-13{opacity:0.1;}.cls-14{letter-spacing:0em;}.cls-15{letter-spacing:0.01em;}.cls-16{letter-spacing:-0.03em;}.cls-17{letter-spacing:0.02em;}.cls-18{letter-spacing:0em;}.cls-19{letter-spacing:-0.03em;}.cls-20{letter-spacing:-0.02em;}.cls-21{opacity:0.47;}.cls-22{letter-spacing:-0.01em;}.cls-23{letter-spacing:-0.01em;}.cls-24{letter-spacing:-0.01em;}.cls-25{letter-spacing:-0.02em;}.cls-26{letter-spacing:-0.05em;}.cls-27{letter-spacing:0em;}.cls-28{letter-spacing:-0.01em;}.cls-29{letter-spacing:-0.01em;}.cls-30{letter-spacing:-0.01em;}.cls-31{letter-spacing:-0.01em;}.cls-32{letter-spacing:-0.03em;}.cls-33{letter-spacing:-0.08em;}.cls-34{letter-spacing:-0.01em;}.cls-35{letter-spacing:-0.01em;}.cls-36{letter-spacing:0em;}.cls-37{letter-spacing:-0.01em;}.cls-38{letter-spacing:0.01em;}.cls-39{letter-spacing:0.01em;}.cls-40{letter-spacing:0.01em;}.cls-41{letter-spacing:0em;}.cls-42{font-size:10px;font-family:MyriadPro-Bold, Myriad Pro;font-weight:700;}</style></defs><title>red-route</title><g id="Layer_2" data-name="Layer 2"><g id="Layer_1-2" data-name="Layer 1"><rect class="cls-1" x="0.5" y="0.5" width="569" height="556"/><text class="cls-2" transform="translate(168.94 42.27)">SEP<tspan class="cls-3" x="18.2" y="0">T</tspan><tspan x="23.27" y="0">A REGIONAL </tspan><tspan class="cls-4" x="87.85" y="0">R</tspan><tspan class="cls-5" x="94.37" y="0">AIL EXPERIENCE RE</tspan><tspan class="cls-6" x="188.72" y="0">D</tspan><tspan x="196.88" y="0">-</tspan><tspan class="cls-7" x="200.56" y="0">R</tspan><tspan x="207.06" y="0">OUTES</tspan></text><rect class="cls-8" x="93" y="61" width="80" height="80"/><rect class="cls-9" x="196.5" y="60.5" width="80" height="80"/><rect class="cls-10" x="309.5" y="61.5" width="80" height="80"/><rect class="cls-11" x="418.5" y="61.5" width="80" height="80"/><rect class="cls-10" x="417.5" y="162.5" width="80" height="80"/><rect class="cls-9" x="308.5" y="162.5" width="80" height="80"/><rect class="cls-8" x="196.5" y="162.5" width="80" height="80"/><rect class="cls-12" x="93" y="163" width="80" height="80"/><rect class="cls-13" x="93.5" y="265.5" width="80" height="80"/><rect class="cls-12" x="194.5" y="267.5" width="80" height="80"/><rect class="cls-8" x="305.5" y="267.5" width="80" height="80"/><rect class="cls-9" x="417" y="267" width="80" height="80"/><rect class="cls-13" x="93.5" y="368.5" width="80" height="80"/><rect class="cls-12" x="194.5" y="370.5" width="80" height="80"/><rect class="cls-8" x="304" y="370" width="80" height="80"/><rect class="cls-9" x="417" y="370" width="80" height="80"/><text class="cls-2" transform="translate(70.03 92)"><tspan class="cls-14">A</tspan><tspan x="7.31" y="0">ll</tspan><tspan x="-29.02" y="14.4">the time</tspan></text><text class="cls-2" transform="translate(45.33 195)"><tspan class="cls-15">M</tspan><tspan x="9.72" y="0">ost of</tspan><tspan x="-4.32" y="14.4">the time</tspan></text><text class="cls-2" transform="translate(23.21 397)"><tspan class="cls-16">V<tspan class="cls-5" x="6.3" y="0">e</tspan><tspan class="cls-17" x="12.31" y="0">r</tspan><tspan class="cls-18" x="16.54" y="0">y little of</tspan></tspan><tspan x="17.81" y="14.4">the time</tspan></text><text class="cls-2" transform="translate(135.68 471)"><tspan class="cls-19">F<tspan class="cls-5" x="5.47" y="0">ew</tspan></tspan><tspan class="cls-20" x="-14.04" y="14.4">P</tspan><tspan x="-7.96" y="14.4">eople</tspan></text><text class="cls-2" transform="translate(223.4 471)"><tspan class="cls-15">S</tspan><tspan x="5.99" y="0">ome</tspan><tspan class="cls-20" x="-5.76" y="14.4">P</tspan><tspan x="0.32" y="14.4">eople</tspan></text><text class="cls-2" transform="translate(340.97 471)"><tspan class="cls-15">M</tspan><tspan x="9.72" y="0">ost</tspan><tspan class="cls-20" x="-9.32" y="14.4">P</tspan><tspan x="-3.24" y="14.4">eople</tspan></text><text class="cls-2" transform="translate(463.03 471)"><tspan class="cls-14">A</tspan><tspan x="7.31" y="0">ll</tspan><tspan class="cls-20" x="-21.38" y="14.4">P</tspan><tspan x="-15.3" y="14.4">eople</tspan></text><text class="cls-2" transform="translate(41.77 305)"><tspan class="cls-15">S</tspan><tspan x="5.99" y="0">ome of</tspan><tspan x="-0.76" y="14.4">the time</tspan></text><rect class="cls-21" x="429" y="79" width="56" height="45"/><rect class="cls-21" x="431" y="178" width="56" height="45"/><rect class="cls-21" x="316" y="77" width="66.81" height="45"/><text class="cls-2" transform="translate(326.4 97.5)"><tspan class="cls-22">P</tspan><tspan x="6.2" y="0">u</tspan><tspan class="cls-23" x="12.82" y="0">r</tspan><tspan x="16.62" y="0">chase</tspan><tspan class="cls-24" x="7.79" y="14.4">T</tspan><tspan x="13.61" y="14.4">icket</tspan></text><rect class="cls-21" x="315.19" y="178" width="66.81" height="52"/><rect class="cls-21" x="429" y="283" width="56" height="45"/><text class="cls-2" transform="translate(443.65 303.5)"><tspan class="cls-25">V<tspan class="cls-5" x="6.5" y="0">iew </tspan></tspan><tspan class="cls-26" x="-13.81" y="14.4">T</tspan><tspan class="cls-27" x="-8.38" y="14.4">r</tspan><tspan x="-4.52" y="14.4">ainboa</tspan><tspan class="cls-28" x="29.93" y="14.4">r</tspan><tspan x="33.74" y="14.4">d</tspan></text><rect class="cls-21" x="208" y="77" width="56" height="45"/><text class="cls-2" transform="translate(226.14 97.5)">Run<tspan x="-8.9" y="14.4">or Rush</tspan></text><rect class="cls-21" x="209" y="181" width="56" height="45"/><rect class="cls-21" x="105" y="78" width="56" height="45"/><text class="cls-2" transform="translate(123.77 98.5)"><tspan class="cls-29">U</tspan><tspan x="7.69" y="0">se</tspan><tspan x="-13.14" y="14.4">B</tspan><tspan class="cls-23" x="-6.64" y="14.4">r</tspan><tspan x="-2.83" y="14.4">oshu</tspan><tspan class="cls-23" x="21.78" y="14.4">r</tspan><tspan x="25.58" y="14.4">e</tspan></text><rect class="cls-21" x="105" y="181" width="56" height="45"/><rect class="cls-21" x="313.46" y="285" width="64.54" height="45"/><text class="cls-2" transform="translate(319.69 305.5)"><tspan class="cls-4">G</tspan><tspan x="7.81" y="0">et </tspan><tspan class="cls-30" x="20.34" y="0">C</tspan><tspan x="27.17" y="0">o</tspan><tspan class="cls-31" x="33.76" y="0">ff</tspan><tspan x="40.6" y="0">ee</tspan><tspan x="7.07" y="14.4">or </tspan><tspan class="cls-32" x="20.13" y="14.4">F</tspan><tspan x="25.6" y="14.4">ood</tspan></text><rect class="cls-21" x="206" y="283" width="56" height="45"/><text class="cls-2" transform="translate(224.77 303.5)"><tspan class="cls-29">U</tspan><tspan x="7.69" y="0">se</tspan><tspan class="cls-33" x="-1.79" y="14.4">A</tspan><tspan x="4.63" y="14.4">TM</tspan></text><rect class="cls-21" x="98" y="285" width="67" height="45"/><text class="cls-2" transform="translate(120.84 305.5)"><tspan class="cls-16">W</tspan><tspan x="9.76" y="0">ait</tspan><tspan x="-17.89" y="14.4">and B</tspan><tspan class="cls-23" x="10.37" y="14.4">r</tspan><tspan class="cls-34" x="14.18" y="14.4">o</tspan><tspan class="cls-35" x="20.68" y="14.4">w</tspan><tspan x="29.44" y="14.4">se</tspan></text><rect class="cls-21" x="422" y="382.38" width="70" height="56.63"/><text class="cls-2" transform="translate(446.47 400.5)"><tspan class="cls-36">R</tspan><tspan x="6.5" y="0">ead</tspan><tspan class="cls-7" x="-4.15" y="14.4">S</tspan><tspan class="cls-18" x="1.8" y="14.4">a</tspan><tspan class="cls-37" x="7.58" y="14.4">f</tspan><tspan x="10.93" y="14.4">e</tspan><tspan class="cls-38" x="16.94" y="14.4">t</tspan><tspan class="cls-18" x="21.02" y="14.4">y </tspan><tspan class="cls-39" x="-17.08" y="28.8">I</tspan><tspan class="cls-18" x="-14.09" y="28.8">nstru</tspan><tspan class="cls-40" x="11.83" y="28.8">c</tspan><tspan x="17.36" y="28.8">tions</tspan></text><rect class="cls-21" x="312" y="389" width="64.54" height="45"/><rect class="cls-21" x="543" y="404" width="64.54" height="45"/><rect class="cls-21" x="206" y="389" width="56" height="45"/><text class="cls-2" transform="translate(224.47 207.5)"><tspan class="cls-36">R</tspan><tspan x="6.5" y="0">ead</tspan></text><text class="cls-2" transform="translate(327.02 194.5)"><tspan class="cls-34">C</tspan><tspan x="6.88" y="0">alcul</tspan><tspan class="cls-41" x="30.31" y="0">a</tspan><tspan class="cls-35" x="36.05" y="0">t</tspan><tspan class="cls-5" x="39.95" y="0">e</tspan><tspan class="cls-36" x="-5.27" y="14.4">R</tspan><tspan x="1.24" y="14.4">emaining </tspan><tspan class="cls-24" x="10.66" y="28.8">T</tspan><tspan x="16.48" y="28.8">ime</tspan></text><rect class="cls-21" x="104" y="386" width="56" height="45"/><text class="cls-2" transform="translate(119.2 410.5)">Sleep</text><text class="cls-2" transform="translate(441.59 98.5)"><tspan class="cls-4">G</tspan><tspan class="cls-5" x="7.81" y="0">et </tspan><tspan class="cls-35" x="20.34" y="0">t</tspan><tspan x="24.24" y="0">o</tspan><tspan x="-3.67" y="14.4"> </tspan><tspan class="cls-14" x="-1.12" y="14.4">S</tspan><tspan x="4.76" y="14.4">t</tspan><tspan class="cls-41" x="8.73" y="14.4">a</tspan><tspan x="14.47" y="14.4">tion</tspan></text><text class="cls-2" transform="translate(445.91 200.5)"><tspan class="cls-15">S</tspan><tspan x="5.99" y="0">eek </tspan><tspan x="-10" y="14.4">Di</tspan><tspan class="cls-23" x="0.8" y="14.4">r</tspan><tspan x="4.61" y="14.4">e</tspan><tspan class="cls-40" x="10.62" y="14.4">c</tspan><tspan x="16.15" y="14.4">tion</tspan></text><text class="cls-2" transform="translate(121.5 200.5)"><tspan class="cls-35">U</tspan><tspan x="7.69" y="0">se </tspan><tspan class="cls-36" x="-13.61" y="14.4">R</tspan><tspan x="-7.11" y="14.4">est</tspan><tspan class="cls-28" x="7.63" y="14.4">r</tspan><tspan x="11.43" y="14.4">oom</tspan></text><text class="cls-2" transform="translate(222.58 406.5)"><tspan class="cls-25">V<tspan class="cls-5" x="6.5" y="0">isit</tspan></tspan><tspan class="cls-39" x="-12.86" y="14.4">I</tspan><tspan class="cls-18" x="-9.87" y="14.4">n</tspan><tspan class="cls-37" x="-3.21" y="14.4">f</tspan><tspan x="0.14" y="14.4">o </tspan><tspan class="cls-36" x="9.27" y="14.4">D</tspan><tspan x="17.31" y="14.4">esk</tspan></text><text class="cls-2" transform="translate(335.17 408.5)"><tspan class="cls-29">A</tspan><tspan x="7.27" y="0">sk</tspan><tspan class="cls-15" x="-15.1" y="14.4">S</tspan><tspan x="-9.11" y="14.4">omeone</tspan></text><text class="cls-42" transform="translate(609 249.43)"><tspan xml:space="preserve">  </tspan></text></g></g></svg>