<svg xmlns="http://www.w3.org/2000/svg" xmlns:xlink="http://www.w3.org/1999/xlink" viewBox="0 0 908 334.003"><defs><style>.a,.c{fill:none;}.b{fill:#fff;stroke:#838383;}.c{stroke:#707070;}.d{fill:#444;font-size:13px;font-family:Roboto-Regular, Roboto;}.e{clip-path:url(#a);}.f{stroke:none;}</style><clipPath id="a"><rect class="a" width="905" height="190"/></clipPath></defs><g transform="translate(633.5 849.502)"><g class="b" transform="translate(-631 -847)"><rect class="f" width="905" height="331"/><rect class="a" x="0.5" y="0.5" width="904" height="330"/></g><line class="c" x2="1" y2="334" transform="translate(-181.5 -849.5)"/><text class="d" transform="translate(-415 -756)"><tspan x="-150.433" y="0">Feeling a lack of professional development direction</tspan></text><text class="d" transform="translate(50 -767)"><tspan x="-96.58" y="0">Give guidence with skills set with </tspan><tspan x="-142.67" y="18">relevant jobs and sample &quot;skill building moments&quot;</tspan></text><text class="d" transform="translate(-418 -689)"><tspan x="-84.605" y="0">Lacking a sense of autonomy</tspan></text><text class="d" transform="translate(43 -701)"><tspan x="-140.747" y="0">Create a canvas where staff can create their own</tspan><tspan x="-141.248" y="18" xml:space="preserve"> development paths with &quot;skill building moments&quot;</tspan></text><text class="d" transform="translate(-418 -618)"><tspan x="-121.386" y="0">Too shy to reach out to other departments</tspan></text><text class="d" transform="translate(-421 -547)"><tspan x="-156.489" y="0">Unsure of existing opportunities/ paths to promotions </tspan></text><text class="d" transform="translate(50 -627)"><tspan x="-106.149" y="0">Add photos, social gamification, and </tspan><tspan x="-112.008" y="18">contact pathways between employees </tspan></text><text class="d" transform="translate(46 -558)"><tspan x="-137.595" y="0">Link all skills, jobs, and &quot;skill building moments&quot; </tspan><tspan x="-171.929" y="18">to in a web-style flow to create open paths for development </tspan></text><text class="d" transform="translate(-419 -809)"><tspan x="-40.177" y="0" xml:space="preserve">PAIN  POINTS</tspan></text><text class="d" transform="translate(49 -809)"><tspan x="-48.579" y="0">OPPORTUNITIES</tspan></text><line class="c" x2="905" transform="translate(-630.5 -796.5)"/><g class="e" transform="translate(-633.5 -730.5)"><g transform="translate(630.5 747.5)"><path class="c" d="M0,0H905" transform="translate(-630.5 -747.5)"/></g><g transform="translate(630.5 819.5)"><path class="c" d="M0,0H905" transform="translate(-630.5 -747.5)"/></g><g transform="translate(630.5 891.5)"><path class="c" d="M0,0H905" transform="translate(-630.5 -747.5)"/></g></g></g></svg>