<svg xmlns="http://www.w3.org/2000/svg" xmlns:xlink="http://www.w3.org/1999/xlink" viewBox="0 0 1280 800"><defs><style>.a{clip-path:url(#b);}.b{fill:#ececec;}.c,.d,.e,.f,.g,.i,.n{fill:#707070;}.c{font-size:32px;}.c,.d,.e,.f,.g,.n{font-family:SegoeUI, Segoe UI;}.d,.f{font-size:20px;}.d{opacity:0.8;}.e{font-size:138px;}.g{font-size:16px;opacity:0.45;}.h,.q,.r,.t{fill:none;}.h,.j,.o,.q,.r{stroke:#707070;}.i{font-size:26px;font-family:SegoeUI-Light, Segoe UI;font-weight:300;}.j,.u{fill:#fff;}.k,.o{fill:#7a7878;}.l{fill:#e6e7e8;}.m{fill:#a7a9ac;}.n{font-size:13px;}.p{fill:#333;}.q{stroke-width:3px;}.r{stroke-width:4px;}.s{stroke:none;}</style><clipPath id="b"><rect width="1280" height="800"/></clipPath></defs><g id="a" class="a"><rect class="u" width="1280" height="800"/><rect class="b" width="456" height="800"/><text class="c" transform="translate(58 49)"><tspan x="0" y="0">The</tspan><tspan x="0" y="43">Weather</tspan><tspan x="0" y="86">Channel </tspan></text><g transform="translate(-420 -16)"><text class="d" transform="translate(1244 62)"><tspan x="0" y="0">Explore </tspan></text><text class="d" transform="translate(1382 62)"><tspan x="0" y="0">Health </tspan></text><text class="d" transform="translate(1520 62)"><tspan x="0" y="0">Safety &amp;</tspan><tspan x="0" y="27">Preparedness </tspan></text></g><text class="e" transform="translate(5 618)"><tspan x="0" y="0" xml:space="preserve"> 66</tspan></text><text class="f" transform="translate(52 659)"><tspan x="0" y="0">Sunny</tspan></text><text class="g" transform="translate(1107 121)"><tspan x="0" y="0">search locations </tspan></text><line class="h" x2="248" transform="translate(976 128)"/><line class="h" x2="720" transform="translate(504 200)"/><line class="h" x2="720" transform="translate(504 345)"/><line class="h" x2="720" transform="translate(504 408)"/><text class="i" transform="translate(547 393)"><tspan x="0" y="0">Today</tspan></text><text class="i" transform="translate(668 393)"><tspan x="0" y="0">Week</tspan></text><text class="i" transform="translate(789 393)"><tspan x="0" y="0">Month</tspan></text><text class="i" transform="translate(551 481)"><tspan x="0" y="0">3:00pm</tspan></text><g transform="translate(-128)"><text class="i" transform="translate(1104 481)"><tspan x="0" y="0">66 </tspan></text><g class="j" transform="translate(1136 456)"><circle class="s" cx="4" cy="4" r="4"/><circle class="t" cx="4" cy="4" r="3.5"/></g></g><g transform="translate(-128 90)"><text class="i" transform="translate(1104 481)"><tspan x="0" y="0">62 </tspan></text><g class="j" transform="translate(1136 456)"><circle class="s" cx="4" cy="4" r="4"/><circle class="t" cx="4" cy="4" r="3.5"/></g></g><g transform="translate(-128 184)"><text class="i" transform="translate(1104 481)"><tspan x="0" y="0">57 </tspan></text><g class="j" transform="translate(1136 456)"><circle class="s" cx="4" cy="4" r="4"/><circle class="t" cx="4" cy="4" r="3.5"/></g></g><g transform="translate(-128 267)"><text class="i" transform="translate(1104 481)"><tspan x="0" y="0">54 </tspan></text><g class="j" transform="translate(1136 456)"><circle class="s" cx="4" cy="4" r="4"/><circle class="t" cx="4" cy="4" r="3.5"/></g></g><text class="i" transform="translate(552 571)"><tspan x="0" y="0">6:00pm</tspan></text><text class="i" transform="translate(552 663)"><tspan x="0" y="0">9:00pm</tspan></text><text class="i" transform="translate(549 748)"><tspan x="0" y="0">10:00pm</tspan></text><g transform="translate(610 274)"><path class="k" d="M15.366,12.869,9.531,7.034l-2.5,2.5,5.835,5.835ZM8.344,26.208H0v3.584H8.344ZM29.792,0H26.208V8.344h3.584Zm19.3,9.408-2.5-2.5-5.958,5.835,2.5,2.5ZM28,11.917A16.083,16.083,0,1,0,44.083,28,16.013,16.013,0,0,0,28,11.917ZM28,40.51A12.51,12.51,0,1,1,40.51,28,12.509,12.509,0,0,1,28,40.51Zm12.634,2.621,5.958,5.958,2.5-2.5-5.958-5.958Zm7.022-16.923v3.584H56V26.208ZM6.91,46.592l2.5,2.5,5.835-5.958-2.5-2.5ZM26.208,56h3.584V47.656H26.208Z" transform="translate(-250 -250)"/></g><g transform="translate(808 444.488)"><path class="k" d="M14.135,11.838,8.767,6.47l-2.3,2.3,5.368,5.368Zm-6.46,12.27H0v3.3H7.675ZM27.4,0h-3.3V7.675h3.3ZM45.156,8.654l-2.3-2.3-5.481,5.368,2.3,2.3Zm-19.4,2.308A14.794,14.794,0,1,0,40.55,25.756,14.73,14.73,0,0,0,25.756,10.962Zm0,26.3A11.508,11.508,0,1,1,37.264,25.756,11.507,11.507,0,0,1,25.756,37.264Zm11.621,2.411,5.481,5.481,2.3-2.3-5.481-5.481Zm6.46-15.567v3.3h7.675v-3.3ZM6.357,42.858l2.3,2.3,5.368-5.481-2.3-2.3Zm17.751,8.654h3.3V43.837h-3.3Z"/></g><g transform="translate(808 532.488)"><path class="k" d="M14.135,11.838,8.767,6.47l-2.3,2.3,5.368,5.368Zm-6.46,12.27H0v3.3H7.675ZM27.4,0h-3.3V7.675h3.3ZM45.156,8.654l-2.3-2.3-5.481,5.368,2.3,2.3Zm-19.4,2.308A14.794,14.794,0,1,0,40.55,25.756,14.73,14.73,0,0,0,25.756,10.962Zm0,26.3A11.508,11.508,0,1,1,37.264,25.756,11.507,11.507,0,0,1,25.756,37.264Zm11.621,2.411,5.481,5.481,2.3-2.3-5.481-5.481Zm6.46-15.567v3.3h7.675v-3.3ZM6.357,42.858l2.3,2.3,5.368-5.481-2.3-2.3Zm17.751,8.654h3.3V43.837h-3.3Z"/></g><text class="f" transform="translate(500 128)"><tspan x="0" y="0">Philadelphia, PA</tspan></text><text class="f" transform="translate(49 708)"><tspan x="0" y="0">Philadelphia, PA</tspan></text><g transform="translate(513 215.991)"><g transform="translate(0 0)"><path class="l" d="M118.3,179.809a38.5,38.5,0,1,1,38.5-38.5A38.563,38.563,0,0,1,118.3,179.809Zm0-61.778A23.274,23.274,0,1,0,141.578,141.3,23.3,23.3,0,0,0,118.3,118.031Z" transform="translate(-79.8 -102.8)"/></g><path class="m" d="M95.031,141.3A23.3,23.3,0,0,1,118.3,118.031V102.8a38.52,38.52,0,0,0-23.359,69.137l9.241-12.065A23.43,23.43,0,0,1,95.031,141.3Z" transform="translate(-79.8 -102.8)"/></g><g transform="translate(773.894 204.508) rotate(69)"><g transform="translate(0 0)"><path class="l" d="M38.5,77.009a38.5,38.5,0,1,1,38.5-38.5A38.563,38.563,0,0,1,38.5,77.009Zm0-61.778A23.274,23.274,0,1,0,61.778,38.5,23.3,23.3,0,0,0,38.5,15.231Z"/></g><path class="m" d="M15.231,38.5A23.3,23.3,0,0,1,38.5,15.231V0A38.52,38.52,0,0,0,15.145,69.137l9.241-12.065A23.43,23.43,0,0,1,15.231,38.5Z" transform="translate(0 0)"/></g><g transform="translate(990.894 205) rotate(69)"><g transform="translate(0 0)"><path class="l" d="M38.5,77.009a38.5,38.5,0,1,1,38.5-38.5A38.563,38.563,0,0,1,38.5,77.009Zm0-61.778A23.274,23.274,0,1,0,61.778,38.5,23.3,23.3,0,0,0,38.5,15.231Z"/></g><path class="m" d="M15.231,38.5A23.3,23.3,0,0,1,38.5,15.231V0A38.52,38.52,0,0,0,15.145,69.137l9.241-12.065A23.43,23.43,0,0,1,15.231,38.5Z" transform="translate(0 0)"/></g><g transform="translate(1207.588 295.637) rotate(-174)"><g transform="translate(0)"><path class="l" d="M38.5,77.009a38.5,38.5,0,1,1,38.5-38.5A38.563,38.563,0,0,1,38.5,77.009Zm0-61.778A23.274,23.274,0,1,0,61.778,38.5,23.3,23.3,0,0,0,38.5,15.231Z"/></g><path class="m" d="M15.231,38.5A23.3,23.3,0,0,1,38.5,15.231V0A38.52,38.52,0,0,0,15.145,69.137l9.241-12.065A23.43,23.43,0,0,1,15.231,38.5Z" transform="translate(0)"/></g><text class="n" transform="translate(504 327)"><tspan x="0" y="0">Tree pollen: low</tspan></text><text class="n" transform="translate(704 327)"><tspan x="0" y="0">Grass pollen: low</tspan></text><text class="n" transform="translate(1118 480)"><tspan x="0" y="0">Enjoy a picnic</tspan></text><text class="n" transform="translate(1118 566)"><tspan x="0" y="0">Put on a light coat</tspan></text><text class="n" transform="translate(1118 661)"><tspan x="0" y="0">Enjoy the indoors</tspan></text><text class="n" transform="translate(1118 741)"><tspan x="0" y="0">Watch the stars</tspan></text><text class="n" transform="translate(905 327)"><tspan x="0" y="0">Ragweed pollen: med</tspan></text><text class="n" transform="translate(1084 327)"><tspan x="0" y="0">Breathing comfort: good</tspan></text><g class="o" transform="translate(547 404)"><rect class="s" width="56" height="4"/><rect class="t" x="0.5" y="0.5" width="55" height="3"/></g><g transform="translate(806.098 632.557)"><g transform="translate(0 0)"><path class="p" d="M24.442,227.519H1.018a1.018,1.018,0,0,1,0-2.036H24.432a3.174,3.174,0,0,0,3.144-3.224,3.226,3.226,0,0,0-3.144-3.224,1.018,1.018,0,1,1,0-2.036,5.26,5.26,0,1,1,.01,10.519Z" transform="translate(0 -200.572)"/><path class="p" d="M39.385,345.836H17.618a1.018,1.018,0,1,1,0-2.036H39.385a1.036,1.036,0,0,1,1.018,1.018A.991.991,0,0,1,39.385,345.836Z" transform="translate(-14.943 -314.717)"/><path class="p" d="M32.336,87.761h-.868a1.018,1.018,0,1,1,0-2.036h.868a15.644,15.644,0,1,0-15.4-18.554.891.891,0,0,1-.549.709.979.979,0,0,1-.938,0,8.785,8.785,0,0,0-4.012-.868,9.329,9.329,0,0,0-9.042,7,1.011,1.011,0,0,1-1.258.709,1.011,1.011,0,0,1-.709-1.258,11.572,11.572,0,0,1,11.078-8.483,12.77,12.77,0,0,1,3.773.629A17.762,17.762,0,1,1,32.336,87.761Z" transform="translate(-0.349 -52.4)"/><path class="p" d="M96.1,392.508a1.018,1.018,0,0,1,0-2.036.944.944,0,0,0,1.018-1.018,1.036,1.036,0,0,0-1.018-1.018H80.618a1.018,1.018,0,0,1,0-2.036H96.1a3.089,3.089,0,0,1,3.144,3.064A3.131,3.131,0,0,1,96.1,392.508Z" transform="translate(-71.656 -353.065)"/></g></g><g transform="translate(799.659 712)"><g transform="translate(14.502)"><path class="q" d="M142.391,53.863A18,18,0,0,1,145.445,43.8a21.152,21.152,0,1,0,25.094,25.094,18.09,18.09,0,0,1-28.148-15.032Z" transform="translate(-128.7 -43.8)"/></g><path class="q" d="M88.19,373.6l1.51,3.065,3.38.5-2.445,2.378.575,3.369-3.02-1.589-3.031,1.589.586-3.369L83.3,377.161l3.369-.5Z" transform="translate(-73.914 -336.437)"/><path class="q" d="M5.758,269.3l1.78,3.606,3.966.575-2.873,2.806.676,3.966-3.55-1.871L2.2,280.253l.676-3.966L0,273.48l3.978-.575Z" transform="translate(0 -243.89)"/></g><g class="r" transform="translate(189 496)"><circle class="s" cx="12" cy="12" r="12"/><circle class="t" cx="12" cy="12" r="10"/></g></g></svg>